<mxfile host="app.diagrams.net" agent="Mozilla/5.0 (X11; Ubuntu; Linux x86_64; rv:136.0) Gecko/20100101 Firefox/136.0" version="27.1.5">
  <diagram name="Page-1" id="42789a77-a242-8287-6e28-9cd8cfd52e62">
    <mxGraphModel dx="4551" dy="2286" grid="1" gridSize="10" guides="1" tooltips="1" connect="1" arrows="1" fold="1" page="1" pageScale="1" pageWidth="1100" pageHeight="850" background="none" math="0" shadow="0">
      <root>
        <mxCell id="0" />
        <mxCell id="1" parent="0" />
        <mxCell id="ZXX-v3CZGw-HriFd5jeJ-169" style="edgeStyle=orthogonalEdgeStyle;rounded=0;orthogonalLoop=1;jettySize=auto;html=1;exitX=0.5;exitY=1;exitDx=0;exitDy=0;" parent="1" source="1ea317790d2ca983-2" target="ZXX-v3CZGw-HriFd5jeJ-167" edge="1">
          <mxGeometry relative="1" as="geometry" />
        </mxCell>
        <mxCell id="ZXX-v3CZGw-HriFd5jeJ-170" style="edgeStyle=orthogonalEdgeStyle;rounded=0;orthogonalLoop=1;jettySize=auto;html=1;exitX=0.5;exitY=1;exitDx=0;exitDy=0;" parent="1" source="1ea317790d2ca983-2" target="ZXX-v3CZGw-HriFd5jeJ-166" edge="1">
          <mxGeometry relative="1" as="geometry" />
        </mxCell>
        <mxCell id="ZXX-v3CZGw-HriFd5jeJ-171" style="edgeStyle=orthogonalEdgeStyle;rounded=0;orthogonalLoop=1;jettySize=auto;html=1;exitX=0.5;exitY=1;exitDx=0;exitDy=0;" parent="1" source="1ea317790d2ca983-2" target="ZXX-v3CZGw-HriFd5jeJ-168" edge="1">
          <mxGeometry relative="1" as="geometry" />
        </mxCell>
        <mxCell id="1ea317790d2ca983-2" value=".bh paramfield_decl.bs" style="ellipse;whiteSpace=wrap;html=1;rounded=0;shadow=1;comic=0;labelBackgroundColor=none;strokeWidth=1;fontFamily=Verdana;fontSize=12;align=center;" parent="1" vertex="1">
          <mxGeometry x="440" y="2230" width="75" height="50" as="geometry" />
        </mxCell>
        <mxCell id="ZXX-v3CZGw-HriFd5jeJ-63" style="edgeStyle=orthogonalEdgeStyle;rounded=0;orthogonalLoop=1;jettySize=auto;html=1;exitX=0.5;exitY=1;exitDx=0;exitDy=0;" parent="1" source="1ea317790d2ca983-4" target="ZXX-v3CZGw-HriFd5jeJ-56" edge="1">
          <mxGeometry relative="1" as="geometry" />
        </mxCell>
        <mxCell id="ZXX-v3CZGw-HriFd5jeJ-64" style="edgeStyle=orthogonalEdgeStyle;rounded=0;orthogonalLoop=1;jettySize=auto;html=1;exitX=0.5;exitY=1;exitDx=0;exitDy=0;" parent="1" source="1ea317790d2ca983-4" target="ZXX-v3CZGw-HriFd5jeJ-57" edge="1">
          <mxGeometry relative="1" as="geometry" />
        </mxCell>
        <mxCell id="ZXX-v3CZGw-HriFd5jeJ-65" style="edgeStyle=orthogonalEdgeStyle;rounded=0;orthogonalLoop=1;jettySize=auto;html=1;exitX=0.5;exitY=1;exitDx=0;exitDy=0;" parent="1" source="1ea317790d2ca983-4" target="ZXX-v3CZGw-HriFd5jeJ-58" edge="1">
          <mxGeometry relative="1" as="geometry" />
        </mxCell>
        <mxCell id="ZXX-v3CZGw-HriFd5jeJ-66" style="edgeStyle=orthogonalEdgeStyle;rounded=0;orthogonalLoop=1;jettySize=auto;html=1;exitX=0.5;exitY=1;exitDx=0;exitDy=0;" parent="1" source="1ea317790d2ca983-4" target="ZXX-v3CZGw-HriFd5jeJ-59" edge="1">
          <mxGeometry relative="1" as="geometry" />
        </mxCell>
        <mxCell id="ZXX-v3CZGw-HriFd5jeJ-67" style="edgeStyle=orthogonalEdgeStyle;rounded=0;orthogonalLoop=1;jettySize=auto;html=1;exitX=0.5;exitY=1;exitDx=0;exitDy=0;" parent="1" source="1ea317790d2ca983-4" target="ZXX-v3CZGw-HriFd5jeJ-60" edge="1">
          <mxGeometry relative="1" as="geometry" />
        </mxCell>
        <mxCell id="1ea317790d2ca983-4" value=".bh program.bs" style="ellipse;whiteSpace=wrap;html=1;rounded=0;shadow=1;comic=0;labelBackgroundColor=none;strokeWidth=1;fontFamily=Verdana;fontSize=12;align=center;" parent="1" vertex="1">
          <mxGeometry x="430" y="6.67" width="95" height="63.33" as="geometry" />
        </mxCell>
        <mxCell id="ZXX-v3CZGw-HriFd5jeJ-161" style="edgeStyle=orthogonalEdgeStyle;rounded=0;orthogonalLoop=1;jettySize=auto;html=1;exitX=0.5;exitY=1;exitDx=0;exitDy=0;" parent="1" source="1ea317790d2ca983-5" target="ZXX-v3CZGw-HriFd5jeJ-157" edge="1">
          <mxGeometry relative="1" as="geometry" />
        </mxCell>
        <mxCell id="ZXX-v3CZGw-HriFd5jeJ-162" style="edgeStyle=orthogonalEdgeStyle;rounded=0;orthogonalLoop=1;jettySize=auto;html=1;exitX=0.5;exitY=1;exitDx=0;exitDy=0;" parent="1" source="1ea317790d2ca983-5" target="ZXX-v3CZGw-HriFd5jeJ-159" edge="1">
          <mxGeometry relative="1" as="geometry" />
        </mxCell>
        <mxCell id="ZXX-v3CZGw-HriFd5jeJ-163" style="edgeStyle=orthogonalEdgeStyle;rounded=0;orthogonalLoop=1;jettySize=auto;html=1;exitX=0.5;exitY=1;exitDx=0;exitDy=0;" parent="1" source="1ea317790d2ca983-5" target="ZXX-v3CZGw-HriFd5jeJ-156" edge="1">
          <mxGeometry relative="1" as="geometry" />
        </mxCell>
        <mxCell id="ZXX-v3CZGw-HriFd5jeJ-164" style="edgeStyle=orthogonalEdgeStyle;rounded=0;orthogonalLoop=1;jettySize=auto;html=1;exitX=0.5;exitY=1;exitDx=0;exitDy=0;" parent="1" source="1ea317790d2ca983-5" target="ZXX-v3CZGw-HriFd5jeJ-155" edge="1">
          <mxGeometry relative="1" as="geometry" />
        </mxCell>
        <mxCell id="ZXX-v3CZGw-HriFd5jeJ-165" style="edgeStyle=orthogonalEdgeStyle;rounded=0;orthogonalLoop=1;jettySize=auto;html=1;exitX=0.5;exitY=1;exitDx=0;exitDy=0;" parent="1" source="1ea317790d2ca983-5" target="ZXX-v3CZGw-HriFd5jeJ-158" edge="1">
          <mxGeometry relative="1" as="geometry" />
        </mxCell>
        <mxCell id="1ea317790d2ca983-5" value=".bh rec_decl.bs" style="ellipse;whiteSpace=wrap;html=1;rounded=0;shadow=1;comic=0;labelBackgroundColor=none;strokeWidth=1;fontFamily=Verdana;fontSize=12;align=center;" parent="1" vertex="1">
          <mxGeometry x="665" y="1990" width="75" height="50" as="geometry" />
        </mxCell>
        <mxCell id="ZXX-v3CZGw-HriFd5jeJ-81" style="edgeStyle=orthogonalEdgeStyle;rounded=0;orthogonalLoop=1;jettySize=auto;html=1;exitX=0.5;exitY=1;exitDx=0;exitDy=0;" parent="1" source="1ea317790d2ca983-6" target="ZXX-v3CZGw-HriFd5jeJ-74" edge="1">
          <mxGeometry relative="1" as="geometry" />
        </mxCell>
        <mxCell id="1ea317790d2ca983-6" value=".bh decl_list.bs" style="ellipse;whiteSpace=wrap;html=1;rounded=0;shadow=1;comic=0;labelBackgroundColor=none;strokeWidth=1;fontFamily=Verdana;fontSize=12;align=center;" parent="1" vertex="1">
          <mxGeometry x="295" y="440" width="75" height="50" as="geometry" />
        </mxCell>
        <mxCell id="ZXX-v3CZGw-HriFd5jeJ-94" style="edgeStyle=orthogonalEdgeStyle;rounded=0;orthogonalLoop=1;jettySize=auto;html=1;exitX=0.5;exitY=1;exitDx=0;exitDy=0;" parent="1" source="1ea317790d2ca983-7" target="ZXX-v3CZGw-HriFd5jeJ-91" edge="1">
          <mxGeometry relative="1" as="geometry" />
        </mxCell>
        <mxCell id="ZXX-v3CZGw-HriFd5jeJ-95" style="edgeStyle=orthogonalEdgeStyle;rounded=0;orthogonalLoop=1;jettySize=auto;html=1;exitX=0.5;exitY=1;exitDx=0;exitDy=0;" parent="1" source="1ea317790d2ca983-7" target="ZXX-v3CZGw-HriFd5jeJ-92" edge="1">
          <mxGeometry relative="1" as="geometry" />
        </mxCell>
        <mxCell id="ZXX-v3CZGw-HriFd5jeJ-96" style="edgeStyle=orthogonalEdgeStyle;rounded=0;orthogonalLoop=1;jettySize=auto;html=1;exitX=0.5;exitY=1;exitDx=0;exitDy=0;" parent="1" source="1ea317790d2ca983-7" target="ZXX-v3CZGw-HriFd5jeJ-90" edge="1">
          <mxGeometry relative="1" as="geometry" />
        </mxCell>
        <mxCell id="ZXX-v3CZGw-HriFd5jeJ-97" style="edgeStyle=orthogonalEdgeStyle;rounded=0;orthogonalLoop=1;jettySize=auto;html=1;exitX=0.5;exitY=1;exitDx=0;exitDy=0;" parent="1" source="1ea317790d2ca983-7" target="ZXX-v3CZGw-HriFd5jeJ-93" edge="1">
          <mxGeometry relative="1" as="geometry" />
        </mxCell>
        <mxCell id="1ea317790d2ca983-7" value=".bh var_decl.bs" style="ellipse;whiteSpace=wrap;html=1;rounded=0;shadow=1;comic=0;labelBackgroundColor=none;strokeWidth=1;fontFamily=Verdana;fontSize=12;align=center;" parent="1" vertex="1">
          <mxGeometry x="292.5" y="890" width="75" height="50" as="geometry" />
        </mxCell>
        <mxCell id="ZWpXsxyb9gAAwCvWjB7y-7" style="edgeStyle=orthogonalEdgeStyle;rounded=0;orthogonalLoop=1;jettySize=auto;html=1;entryX=0.5;entryY=0;entryDx=0;entryDy=0;" parent="1" source="1ea317790d2ca983-8" target="ZWpXsxyb9gAAwCvWjB7y-1" edge="1">
          <mxGeometry relative="1" as="geometry" />
        </mxCell>
        <mxCell id="1ea317790d2ca983-8" value=".bh opt_paramfield_decl_list_semicolumn .bs" style="ellipse;whiteSpace=wrap;html=1;rounded=0;shadow=1;comic=0;labelBackgroundColor=none;strokeWidth=1;fontFamily=Verdana;fontSize=12;align=center;" parent="1" vertex="1">
          <mxGeometry x="127.5" y="3280" width="75" height="50" as="geometry" />
        </mxCell>
        <mxCell id="1ea317790d2ca983-9" value="Îµ" style="ellipse;whiteSpace=wrap;html=1;rounded=0;shadow=1;comic=0;labelBackgroundColor=none;strokeWidth=1;fontFamily=Verdana;fontSize=12;align=center;" parent="1" vertex="1">
          <mxGeometry x="295" y="320" width="75" height="50" as="geometry" />
        </mxCell>
        <mxCell id="ZXX-v3CZGw-HriFd5jeJ-121" style="edgeStyle=orthogonalEdgeStyle;rounded=0;orthogonalLoop=1;jettySize=auto;html=1;exitX=0.5;exitY=1;exitDx=0;exitDy=0;" parent="1" source="1ea317790d2ca983-10" target="ZXX-v3CZGw-HriFd5jeJ-120" edge="1">
          <mxGeometry relative="1" as="geometry" />
        </mxCell>
        <mxCell id="1ea317790d2ca983-10" value=".bh opt_proc_return_type.bs" style="ellipse;whiteSpace=wrap;html=1;rounded=0;shadow=1;comic=0;labelBackgroundColor=none;strokeWidth=1;fontFamily=Verdana;fontSize=12;align=center;" parent="1" vertex="1">
          <mxGeometry x="292.5" y="1170" width="75" height="50" as="geometry" />
        </mxCell>
        <mxCell id="ZXX-v3CZGw-HriFd5jeJ-151" style="edgeStyle=orthogonalEdgeStyle;rounded=0;orthogonalLoop=1;jettySize=auto;html=1;exitX=0.5;exitY=1;exitDx=0;exitDy=0;" parent="1" source="1ea317790d2ca983-11" target="ZXX-v3CZGw-HriFd5jeJ-146" edge="1">
          <mxGeometry relative="1" as="geometry" />
        </mxCell>
        <mxCell id="1ea317790d2ca983-11" value=".bh proc_body.bs" style="ellipse;whiteSpace=wrap;html=1;rounded=0;shadow=1;comic=0;labelBackgroundColor=none;strokeWidth=1;fontFamily=Verdana;fontSize=12;align=center;" parent="1" vertex="1">
          <mxGeometry x="460" y="1720" width="75" height="50" as="geometry" />
        </mxCell>
        <mxCell id="ZWpXsxyb9gAAwCvWjB7y-34" style="edgeStyle=orthogonalEdgeStyle;rounded=0;orthogonalLoop=1;jettySize=auto;html=1;entryX=0.5;entryY=0;entryDx=0;entryDy=0;" parent="1" source="ZXX-v3CZGw-HriFd5jeJ-8" target="ZWpXsxyb9gAAwCvWjB7y-32" edge="1">
          <mxGeometry relative="1" as="geometry">
            <mxPoint x="162.5" y="3620" as="targetPoint" />
          </mxGeometry>
        </mxCell>
        <mxCell id="ZXX-v3CZGw-HriFd5jeJ-8" value=".bh opt_stmt_list.bs" style="ellipse;whiteSpace=wrap;html=1;rounded=0;shadow=1;comic=0;labelBackgroundColor=none;strokeWidth=1;fontFamily=Verdana;fontSize=12;align=center;" parent="1" vertex="1">
          <mxGeometry x="125" y="3520" width="75" height="50" as="geometry" />
        </mxCell>
        <mxCell id="ZXX-v3CZGw-HriFd5jeJ-137" style="edgeStyle=orthogonalEdgeStyle;rounded=0;orthogonalLoop=1;jettySize=auto;html=1;exitX=0.5;exitY=1;exitDx=0;exitDy=0;" parent="1" source="ZXX-v3CZGw-HriFd5jeJ-12" target="ZXX-v3CZGw-HriFd5jeJ-135" edge="1">
          <mxGeometry relative="1" as="geometry" />
        </mxCell>
        <mxCell id="ZXX-v3CZGw-HriFd5jeJ-138" style="edgeStyle=orthogonalEdgeStyle;rounded=0;orthogonalLoop=1;jettySize=auto;html=1;exitX=0.5;exitY=1;exitDx=0;exitDy=0;" parent="1" source="ZXX-v3CZGw-HriFd5jeJ-12" target="ZXX-v3CZGw-HriFd5jeJ-128" edge="1">
          <mxGeometry relative="1" as="geometry" />
        </mxCell>
        <mxCell id="ZXX-v3CZGw-HriFd5jeJ-139" style="edgeStyle=orthogonalEdgeStyle;rounded=0;orthogonalLoop=1;jettySize=auto;html=1;exitX=0.5;exitY=1;exitDx=0;exitDy=0;" parent="1" source="ZXX-v3CZGw-HriFd5jeJ-12" target="ZXX-v3CZGw-HriFd5jeJ-134" edge="1">
          <mxGeometry relative="1" as="geometry" />
        </mxCell>
        <mxCell id="ZXX-v3CZGw-HriFd5jeJ-140" style="edgeStyle=orthogonalEdgeStyle;rounded=0;orthogonalLoop=1;jettySize=auto;html=1;exitX=0.5;exitY=1;exitDx=0;exitDy=0;" parent="1" source="ZXX-v3CZGw-HriFd5jeJ-12" target="ZXX-v3CZGw-HriFd5jeJ-127" edge="1">
          <mxGeometry relative="1" as="geometry" />
        </mxCell>
        <mxCell id="ZXX-v3CZGw-HriFd5jeJ-141" style="edgeStyle=orthogonalEdgeStyle;rounded=0;orthogonalLoop=1;jettySize=auto;html=1;exitX=0.5;exitY=1;exitDx=0;exitDy=0;" parent="1" source="ZXX-v3CZGw-HriFd5jeJ-12" target="ZXX-v3CZGw-HriFd5jeJ-133" edge="1">
          <mxGeometry relative="1" as="geometry" />
        </mxCell>
        <mxCell id="ZXX-v3CZGw-HriFd5jeJ-142" style="edgeStyle=orthogonalEdgeStyle;rounded=0;orthogonalLoop=1;jettySize=auto;html=1;exitX=0.5;exitY=1;exitDx=0;exitDy=0;" parent="1" source="ZXX-v3CZGw-HriFd5jeJ-12" target="ZXX-v3CZGw-HriFd5jeJ-129" edge="1">
          <mxGeometry relative="1" as="geometry" />
        </mxCell>
        <mxCell id="ZXX-v3CZGw-HriFd5jeJ-143" style="edgeStyle=orthogonalEdgeStyle;rounded=0;orthogonalLoop=1;jettySize=auto;html=1;exitX=0.5;exitY=1;exitDx=0;exitDy=0;" parent="1" source="ZXX-v3CZGw-HriFd5jeJ-12" target="ZXX-v3CZGw-HriFd5jeJ-130" edge="1">
          <mxGeometry relative="1" as="geometry" />
        </mxCell>
        <mxCell id="ZXX-v3CZGw-HriFd5jeJ-144" style="edgeStyle=orthogonalEdgeStyle;rounded=0;orthogonalLoop=1;jettySize=auto;html=1;exitX=0.5;exitY=1;exitDx=0;exitDy=0;" parent="1" source="ZXX-v3CZGw-HriFd5jeJ-12" target="ZXX-v3CZGw-HriFd5jeJ-132" edge="1">
          <mxGeometry relative="1" as="geometry" />
        </mxCell>
        <mxCell id="ZXX-v3CZGw-HriFd5jeJ-145" style="edgeStyle=orthogonalEdgeStyle;rounded=0;orthogonalLoop=1;jettySize=auto;html=1;exitX=0.5;exitY=1;exitDx=0;exitDy=0;" parent="1" source="ZXX-v3CZGw-HriFd5jeJ-12" target="ZXX-v3CZGw-HriFd5jeJ-131" edge="1">
          <mxGeometry relative="1" as="geometry" />
        </mxCell>
        <mxCell id="ZXX-v3CZGw-HriFd5jeJ-12" value=".bh proc_decl.bs" style="ellipse;whiteSpace=wrap;html=1;rounded=0;shadow=1;comic=0;labelBackgroundColor=none;strokeWidth=1;fontFamily=Verdana;fontSize=12;align=center;" parent="1" vertex="1">
          <mxGeometry x="720" y="1420" width="75" height="50" as="geometry" />
        </mxCell>
        <mxCell id="ZXX-v3CZGw-HriFd5jeJ-173" style="edgeStyle=orthogonalEdgeStyle;rounded=0;orthogonalLoop=1;jettySize=auto;html=1;exitX=0.5;exitY=1;exitDx=0;exitDy=0;" parent="1" source="ZXX-v3CZGw-HriFd5jeJ-14" target="ZXX-v3CZGw-HriFd5jeJ-172" edge="1">
          <mxGeometry relative="1" as="geometry" />
        </mxCell>
        <mxCell id="ZXX-v3CZGw-HriFd5jeJ-14" value=".bh opt_paramfield_decl_list_comma.bs" style="ellipse;whiteSpace=wrap;html=1;rounded=0;shadow=1;comic=0;labelBackgroundColor=none;strokeWidth=1;fontFamily=Verdana;fontSize=12;align=center;" parent="1" vertex="1">
          <mxGeometry x="438" y="2490" width="75" height="50" as="geometry" />
        </mxCell>
        <mxCell id="ZWpXsxyb9gAAwCvWjB7y-78" style="edgeStyle=orthogonalEdgeStyle;rounded=0;orthogonalLoop=1;jettySize=auto;html=1;" parent="1" source="ZXX-v3CZGw-HriFd5jeJ-16" target="ZWpXsxyb9gAAwCvWjB7y-74" edge="1">
          <mxGeometry relative="1" as="geometry" />
        </mxCell>
        <mxCell id="ZXX-v3CZGw-HriFd5jeJ-16" value=".bh var.bs" style="ellipse;whiteSpace=wrap;html=1;rounded=0;shadow=1;comic=0;labelBackgroundColor=none;strokeWidth=1;fontFamily=Verdana;fontSize=12;align=center;" parent="1" vertex="1">
          <mxGeometry x="52.5" y="3775" width="75" height="50" as="geometry" />
        </mxCell>
        <mxCell id="Opo9EoXG69oaY7-Oztma-10" style="edgeStyle=orthogonalEdgeStyle;rounded=0;orthogonalLoop=1;jettySize=auto;html=1;exitX=0.5;exitY=1;exitDx=0;exitDy=0;" parent="1" source="ZXX-v3CZGw-HriFd5jeJ-18" target="Opo9EoXG69oaY7-Oztma-1" edge="1">
          <mxGeometry relative="1" as="geometry" />
        </mxCell>
        <mxCell id="Opo9EoXG69oaY7-Oztma-11" style="edgeStyle=orthogonalEdgeStyle;rounded=0;orthogonalLoop=1;jettySize=auto;html=1;exitX=0.5;exitY=1;exitDx=0;exitDy=0;" parent="1" source="ZXX-v3CZGw-HriFd5jeJ-18" target="Opo9EoXG69oaY7-Oztma-7" edge="1">
          <mxGeometry relative="1" as="geometry" />
        </mxCell>
        <mxCell id="Opo9EoXG69oaY7-Oztma-13" style="edgeStyle=orthogonalEdgeStyle;rounded=0;orthogonalLoop=1;jettySize=auto;html=1;exitX=0.5;exitY=1;exitDx=0;exitDy=0;" parent="1" source="ZXX-v3CZGw-HriFd5jeJ-18" target="Opo9EoXG69oaY7-Oztma-8" edge="1">
          <mxGeometry relative="1" as="geometry" />
        </mxCell>
        <mxCell id="ZXX-v3CZGw-HriFd5jeJ-18" value=".bh exp.bs" style="ellipse;whiteSpace=wrap;html=1;rounded=0;shadow=1;comic=0;labelBackgroundColor=none;strokeWidth=1;fontFamily=Verdana;fontSize=12;align=center;" parent="1" vertex="1">
          <mxGeometry x="442.5" y="2750" width="75" height="50" as="geometry" />
        </mxCell>
        <mxCell id="ZWpXsxyb9gAAwCvWjB7y-19" style="edgeStyle=orthogonalEdgeStyle;rounded=0;orthogonalLoop=1;jettySize=auto;html=1;" parent="1" source="ZXX-v3CZGw-HriFd5jeJ-21" target="ZWpXsxyb9gAAwCvWjB7y-13" edge="1">
          <mxGeometry relative="1" as="geometry" />
        </mxCell>
        <mxCell id="ZXX-v3CZGw-HriFd5jeJ-21" value=".bh paramfield_decl_list_semicolumn.bs" style="ellipse;whiteSpace=wrap;html=1;rounded=0;shadow=1;comic=0;labelBackgroundColor=none;strokeWidth=1;fontFamily=Verdana;fontSize=12;align=center;" parent="1" vertex="1">
          <mxGeometry x="1060" y="3280" width="75" height="50" as="geometry" />
        </mxCell>
        <mxCell id="ZWpXsxyb9gAAwCvWjB7y-39" style="edgeStyle=orthogonalEdgeStyle;rounded=0;orthogonalLoop=1;jettySize=auto;html=1;entryX=0.5;entryY=0;entryDx=0;entryDy=0;" parent="1" source="ZXX-v3CZGw-HriFd5jeJ-23" target="ZWpXsxyb9gAAwCvWjB7y-38" edge="1">
          <mxGeometry relative="1" as="geometry" />
        </mxCell>
        <mxCell id="ZXX-v3CZGw-HriFd5jeJ-23" value=".bh stmt_list.bs" style="ellipse;whiteSpace=wrap;html=1;rounded=0;shadow=1;comic=0;labelBackgroundColor=none;strokeWidth=1;fontFamily=Verdana;fontSize=12;align=center;" parent="1" vertex="1">
          <mxGeometry x="530" y="3520" width="75" height="50" as="geometry" />
        </mxCell>
        <mxCell id="ZWpXsxyb9gAAwCvWjB7y-51" style="edgeStyle=orthogonalEdgeStyle;rounded=0;orthogonalLoop=1;jettySize=auto;html=1;" parent="1" source="ZXX-v3CZGw-HriFd5jeJ-25" target="ZWpXsxyb9gAAwCvWjB7y-48" edge="1">
          <mxGeometry relative="1" as="geometry" />
        </mxCell>
        <mxCell id="ZWpXsxyb9gAAwCvWjB7y-52" style="edgeStyle=orthogonalEdgeStyle;rounded=0;orthogonalLoop=1;jettySize=auto;html=1;" parent="1" source="ZXX-v3CZGw-HriFd5jeJ-25" target="ZWpXsxyb9gAAwCvWjB7y-49" edge="1">
          <mxGeometry relative="1" as="geometry" />
        </mxCell>
        <mxCell id="ZWpXsxyb9gAAwCvWjB7y-53" style="edgeStyle=orthogonalEdgeStyle;rounded=0;orthogonalLoop=1;jettySize=auto;html=1;entryX=0.5;entryY=0;entryDx=0;entryDy=0;" parent="1" source="ZXX-v3CZGw-HriFd5jeJ-25" target="ZWpXsxyb9gAAwCvWjB7y-47" edge="1">
          <mxGeometry relative="1" as="geometry" />
        </mxCell>
        <mxCell id="ZWpXsxyb9gAAwCvWjB7y-54" style="edgeStyle=orthogonalEdgeStyle;rounded=0;orthogonalLoop=1;jettySize=auto;html=1;entryX=0.5;entryY=0;entryDx=0;entryDy=0;" parent="1" source="ZXX-v3CZGw-HriFd5jeJ-25" target="ZWpXsxyb9gAAwCvWjB7y-50" edge="1">
          <mxGeometry relative="1" as="geometry" />
        </mxCell>
        <mxCell id="ZXX-v3CZGw-HriFd5jeJ-25" value=".bh ref_var.bs" style="ellipse;whiteSpace=wrap;html=1;rounded=0;shadow=1;comic=0;labelBackgroundColor=none;strokeWidth=1;fontFamily=Verdana;fontSize=12;align=center;" parent="1" vertex="1">
          <mxGeometry x="1340" y="3540" width="75" height="50" as="geometry" />
        </mxCell>
        <mxCell id="ZWpXsxyb9gAAwCvWjB7y-123" style="edgeStyle=orthogonalEdgeStyle;rounded=0;orthogonalLoop=1;jettySize=auto;html=1;" parent="1" source="ZXX-v3CZGw-HriFd5jeJ-32" target="ZWpXsxyb9gAAwCvWjB7y-122" edge="1">
          <mxGeometry relative="1" as="geometry" />
        </mxCell>
        <mxCell id="ZXX-v3CZGw-HriFd5jeJ-32" value=".bh opt_exp_list.bs" style="ellipse;whiteSpace=wrap;html=1;rounded=0;shadow=1;comic=0;labelBackgroundColor=none;strokeWidth=1;fontFamily=Verdana;fontSize=12;align=center;" parent="1" vertex="1">
          <mxGeometry x="267.5" y="4290" width="75" height="50" as="geometry" />
        </mxCell>
        <mxCell id="ZWpXsxyb9gAAwCvWjB7y-114" style="edgeStyle=orthogonalEdgeStyle;rounded=0;orthogonalLoop=1;jettySize=auto;html=1;" parent="1" source="ZXX-v3CZGw-HriFd5jeJ-38" target="ZWpXsxyb9gAAwCvWjB7y-113" edge="1">
          <mxGeometry relative="1" as="geometry" />
        </mxCell>
        <mxCell id="ZXX-v3CZGw-HriFd5jeJ-38" value=".bh exp_list.bs" style="ellipse;whiteSpace=wrap;html=1;rounded=0;shadow=1;comic=0;labelBackgroundColor=none;strokeWidth=1;fontFamily=Verdana;fontSize=12;align=center;" parent="1" vertex="1">
          <mxGeometry x="90" y="4070" width="75" height="50" as="geometry" />
        </mxCell>
        <mxCell id="ZWpXsxyb9gAAwCvWjB7y-84" style="edgeStyle=orthogonalEdgeStyle;rounded=0;orthogonalLoop=1;jettySize=auto;html=1;" parent="1" source="ZXX-v3CZGw-HriFd5jeJ-40" target="ZWpXsxyb9gAAwCvWjB7y-83" edge="1">
          <mxGeometry relative="1" as="geometry">
            <mxPoint x="647.5" y="3920" as="targetPoint" />
          </mxGeometry>
        </mxCell>
        <mxCell id="ZXX-v3CZGw-HriFd5jeJ-40" value=".bh stmt.bs" style="ellipse;whiteSpace=wrap;html=1;rounded=0;shadow=1;comic=0;labelBackgroundColor=none;strokeWidth=1;fontFamily=Verdana;fontSize=12;align=center;" parent="1" vertex="1">
          <mxGeometry x="610" y="3790" width="75" height="50" as="geometry" />
        </mxCell>
        <mxCell id="ZWpXsxyb9gAAwCvWjB7y-158" style="edgeStyle=orthogonalEdgeStyle;rounded=0;orthogonalLoop=1;jettySize=auto;html=1;" parent="1" source="ZXX-v3CZGw-HriFd5jeJ-43" target="ZWpXsxyb9gAAwCvWjB7y-155" edge="1">
          <mxGeometry relative="1" as="geometry" />
        </mxCell>
        <mxCell id="ZWpXsxyb9gAAwCvWjB7y-159" style="edgeStyle=orthogonalEdgeStyle;rounded=0;orthogonalLoop=1;jettySize=auto;html=1;" parent="1" source="ZXX-v3CZGw-HriFd5jeJ-43" target="ZWpXsxyb9gAAwCvWjB7y-156" edge="1">
          <mxGeometry relative="1" as="geometry" />
        </mxCell>
        <mxCell id="ZWpXsxyb9gAAwCvWjB7y-160" style="edgeStyle=orthogonalEdgeStyle;rounded=0;orthogonalLoop=1;jettySize=auto;html=1;" parent="1" source="ZXX-v3CZGw-HriFd5jeJ-43" target="ZWpXsxyb9gAAwCvWjB7y-157" edge="1">
          <mxGeometry relative="1" as="geometry" />
        </mxCell>
        <mxCell id="ZWpXsxyb9gAAwCvWjB7y-161" style="edgeStyle=orthogonalEdgeStyle;rounded=0;orthogonalLoop=1;jettySize=auto;html=1;" parent="1" source="ZXX-v3CZGw-HriFd5jeJ-43" target="ZWpXsxyb9gAAwCvWjB7y-153" edge="1">
          <mxGeometry relative="1" as="geometry" />
        </mxCell>
        <mxCell id="ZWpXsxyb9gAAwCvWjB7y-162" style="edgeStyle=orthogonalEdgeStyle;rounded=0;orthogonalLoop=1;jettySize=auto;html=1;" parent="1" source="ZXX-v3CZGw-HriFd5jeJ-43" target="ZWpXsxyb9gAAwCvWjB7y-154" edge="1">
          <mxGeometry relative="1" as="geometry" />
        </mxCell>
        <mxCell id="ZXX-v3CZGw-HriFd5jeJ-43" value=".bh while_stmt.bs" style="ellipse;whiteSpace=wrap;html=1;rounded=0;shadow=1;comic=0;labelBackgroundColor=none;strokeWidth=1;fontFamily=Verdana;fontSize=12;align=center;" parent="1" vertex="1">
          <mxGeometry x="645" y="4670" width="75" height="50" as="geometry" />
        </mxCell>
        <mxCell id="ZWpXsxyb9gAAwCvWjB7y-103" style="edgeStyle=orthogonalEdgeStyle;rounded=0;orthogonalLoop=1;jettySize=auto;html=1;" parent="1" source="ZXX-v3CZGw-HriFd5jeJ-47" target="ZWpXsxyb9gAAwCvWjB7y-101" edge="1">
          <mxGeometry relative="1" as="geometry" />
        </mxCell>
        <mxCell id="ZWpXsxyb9gAAwCvWjB7y-104" style="edgeStyle=orthogonalEdgeStyle;rounded=0;orthogonalLoop=1;jettySize=auto;html=1;entryX=0.5;entryY=0;entryDx=0;entryDy=0;" parent="1" source="ZXX-v3CZGw-HriFd5jeJ-47" target="ZWpXsxyb9gAAwCvWjB7y-100" edge="1">
          <mxGeometry relative="1" as="geometry" />
        </mxCell>
        <mxCell id="ZWpXsxyb9gAAwCvWjB7y-105" style="edgeStyle=orthogonalEdgeStyle;rounded=0;orthogonalLoop=1;jettySize=auto;html=1;entryX=0.5;entryY=0;entryDx=0;entryDy=0;" parent="1" source="ZXX-v3CZGw-HriFd5jeJ-47" target="ZWpXsxyb9gAAwCvWjB7y-102" edge="1">
          <mxGeometry relative="1" as="geometry" />
        </mxCell>
        <mxCell id="ZXX-v3CZGw-HriFd5jeJ-47" value=".bh assign_stmt.bs" style="ellipse;whiteSpace=wrap;html=1;rounded=0;shadow=1;comic=0;labelBackgroundColor=none;strokeWidth=1;fontFamily=Verdana;fontSize=12;align=center;" parent="1" vertex="1">
          <mxGeometry x="1280" y="3920" width="75" height="50" as="geometry" />
        </mxCell>
        <mxCell id="ZWpXsxyb9gAAwCvWjB7y-135" style="edgeStyle=orthogonalEdgeStyle;rounded=0;orthogonalLoop=1;jettySize=auto;html=1;" parent="1" source="ZXX-v3CZGw-HriFd5jeJ-49" target="ZWpXsxyb9gAAwCvWjB7y-128" edge="1">
          <mxGeometry relative="1" as="geometry" />
        </mxCell>
        <mxCell id="ZWpXsxyb9gAAwCvWjB7y-136" style="edgeStyle=orthogonalEdgeStyle;rounded=0;orthogonalLoop=1;jettySize=auto;html=1;" parent="1" source="ZXX-v3CZGw-HriFd5jeJ-49" target="ZWpXsxyb9gAAwCvWjB7y-127" edge="1">
          <mxGeometry relative="1" as="geometry" />
        </mxCell>
        <mxCell id="ZWpXsxyb9gAAwCvWjB7y-137" style="edgeStyle=orthogonalEdgeStyle;rounded=0;orthogonalLoop=1;jettySize=auto;html=1;" parent="1" source="ZXX-v3CZGw-HriFd5jeJ-49" target="ZWpXsxyb9gAAwCvWjB7y-130" edge="1">
          <mxGeometry relative="1" as="geometry" />
        </mxCell>
        <mxCell id="ZWpXsxyb9gAAwCvWjB7y-138" style="edgeStyle=orthogonalEdgeStyle;rounded=0;orthogonalLoop=1;jettySize=auto;html=1;" parent="1" source="ZXX-v3CZGw-HriFd5jeJ-49" target="ZWpXsxyb9gAAwCvWjB7y-131" edge="1">
          <mxGeometry relative="1" as="geometry" />
        </mxCell>
        <mxCell id="ZWpXsxyb9gAAwCvWjB7y-139" style="edgeStyle=orthogonalEdgeStyle;rounded=0;orthogonalLoop=1;jettySize=auto;html=1;" parent="1" source="ZXX-v3CZGw-HriFd5jeJ-49" target="ZWpXsxyb9gAAwCvWjB7y-132" edge="1">
          <mxGeometry relative="1" as="geometry" />
        </mxCell>
        <mxCell id="ZWpXsxyb9gAAwCvWjB7y-140" style="edgeStyle=orthogonalEdgeStyle;rounded=0;orthogonalLoop=1;jettySize=auto;html=1;" parent="1" source="ZXX-v3CZGw-HriFd5jeJ-49" target="ZWpXsxyb9gAAwCvWjB7y-129" edge="1">
          <mxGeometry relative="1" as="geometry" />
        </mxCell>
        <mxCell id="ZXX-v3CZGw-HriFd5jeJ-49" value=".bh if_stmt.bs" style="ellipse;whiteSpace=wrap;html=1;rounded=0;shadow=1;comic=0;labelBackgroundColor=none;strokeWidth=1;fontFamily=Verdana;fontSize=12;align=center;" parent="1" vertex="1">
          <mxGeometry x="760" y="4270" width="75" height="50" as="geometry" />
        </mxCell>
        <mxCell id="ZWpXsxyb9gAAwCvWjB7y-143" style="edgeStyle=orthogonalEdgeStyle;rounded=0;orthogonalLoop=1;jettySize=auto;html=1;" parent="1" source="ZXX-v3CZGw-HriFd5jeJ-50" target="ZWpXsxyb9gAAwCvWjB7y-141" edge="1">
          <mxGeometry relative="1" as="geometry" />
        </mxCell>
        <mxCell id="ZWpXsxyb9gAAwCvWjB7y-144" style="edgeStyle=orthogonalEdgeStyle;rounded=0;orthogonalLoop=1;jettySize=auto;html=1;" parent="1" source="ZXX-v3CZGw-HriFd5jeJ-50" target="ZWpXsxyb9gAAwCvWjB7y-142" edge="1">
          <mxGeometry relative="1" as="geometry" />
        </mxCell>
        <mxCell id="ZXX-v3CZGw-HriFd5jeJ-50" value=".bh return_stmt.bs" style="ellipse;whiteSpace=wrap;html=1;rounded=0;shadow=1;comic=0;labelBackgroundColor=none;strokeWidth=1;fontFamily=Verdana;fontSize=12;align=center;" parent="1" vertex="1">
          <mxGeometry x="1300" y="4300" width="75" height="50" as="geometry" />
        </mxCell>
        <mxCell id="ZXX-v3CZGw-HriFd5jeJ-87" style="edgeStyle=orthogonalEdgeStyle;rounded=0;orthogonalLoop=1;jettySize=auto;html=1;exitX=0.5;exitY=1;exitDx=0;exitDy=0;" parent="1" source="ZXX-v3CZGw-HriFd5jeJ-51" target="ZXX-v3CZGw-HriFd5jeJ-84" edge="1">
          <mxGeometry relative="1" as="geometry" />
        </mxCell>
        <mxCell id="ZXX-v3CZGw-HriFd5jeJ-51" value=".bh decl.bs" style="ellipse;whiteSpace=wrap;html=1;rounded=0;shadow=1;comic=0;labelBackgroundColor=none;strokeWidth=1;fontFamily=Verdana;fontSize=12;align=center;" parent="1" vertex="1">
          <mxGeometry x="295" y="660" width="75" height="50" as="geometry" />
        </mxCell>
        <mxCell id="ZWpXsxyb9gAAwCvWjB7y-11" style="edgeStyle=orthogonalEdgeStyle;rounded=0;orthogonalLoop=1;jettySize=auto;html=1;entryX=0.5;entryY=0;entryDx=0;entryDy=0;" parent="1" source="ZXX-v3CZGw-HriFd5jeJ-52" target="ZWpXsxyb9gAAwCvWjB7y-10" edge="1">
          <mxGeometry relative="1" as="geometry" />
        </mxCell>
        <mxCell id="ZXX-v3CZGw-HriFd5jeJ-52" value=".bh opt_paramfield_decl_list_comma .bs" style="ellipse;whiteSpace=wrap;html=1;rounded=0;shadow=1;comic=0;labelBackgroundColor=none;strokeWidth=1;fontFamily=Verdana;fontSize=12;align=center;" parent="1" vertex="1">
          <mxGeometry x="605" y="3280" width="75" height="50" as="geometry" />
        </mxCell>
        <mxCell id="ZWpXsxyb9gAAwCvWjB7y-149" style="edgeStyle=orthogonalEdgeStyle;rounded=0;orthogonalLoop=1;jettySize=auto;html=1;" parent="1" source="ZXX-v3CZGw-HriFd5jeJ-54" target="ZWpXsxyb9gAAwCvWjB7y-146" edge="1">
          <mxGeometry relative="1" as="geometry" />
        </mxCell>
        <mxCell id="ZWpXsxyb9gAAwCvWjB7y-150" style="edgeStyle=orthogonalEdgeStyle;rounded=0;orthogonalLoop=1;jettySize=auto;html=1;" parent="1" source="ZXX-v3CZGw-HriFd5jeJ-54" target="ZWpXsxyb9gAAwCvWjB7y-147" edge="1">
          <mxGeometry relative="1" as="geometry" />
        </mxCell>
        <mxCell id="ZWpXsxyb9gAAwCvWjB7y-151" style="edgeStyle=orthogonalEdgeStyle;rounded=0;orthogonalLoop=1;jettySize=auto;html=1;" parent="1" source="ZXX-v3CZGw-HriFd5jeJ-54" target="ZWpXsxyb9gAAwCvWjB7y-148" edge="1">
          <mxGeometry relative="1" as="geometry" />
        </mxCell>
        <mxCell id="ZWpXsxyb9gAAwCvWjB7y-152" style="edgeStyle=orthogonalEdgeStyle;rounded=0;orthogonalLoop=1;jettySize=auto;html=1;" parent="1" source="ZXX-v3CZGw-HriFd5jeJ-54" target="ZWpXsxyb9gAAwCvWjB7y-145" edge="1">
          <mxGeometry relative="1" as="geometry" />
        </mxCell>
        <mxCell id="ZXX-v3CZGw-HriFd5jeJ-54" value=".bh call_stmt.bs" style="ellipse;whiteSpace=wrap;html=1;rounded=0;shadow=1;comic=0;labelBackgroundColor=none;strokeWidth=1;fontFamily=Verdana;fontSize=12;align=center;" parent="1" vertex="1">
          <mxGeometry x="1690" y="4270" width="75" height="50" as="geometry" />
        </mxCell>
        <mxCell id="ZXX-v3CZGw-HriFd5jeJ-56" value="KW_PROGRAM" style="ellipse;whiteSpace=wrap;html=1;rounded=0;shadow=1;comic=0;labelBackgroundColor=none;strokeWidth=1;fontFamily=Verdana;fontSize=12;align=center;" parent="1" vertex="1">
          <mxGeometry x="220" y="120" width="75" height="50" as="geometry" />
        </mxCell>
        <mxCell id="ZXX-v3CZGw-HriFd5jeJ-57" value="ID.l" style="ellipse;whiteSpace=wrap;html=1;rounded=0;shadow=1;comic=0;labelBackgroundColor=none;strokeWidth=1;fontFamily=Verdana;fontSize=12;align=center;" parent="1" vertex="1">
          <mxGeometry x="330" y="120" width="75" height="50" as="geometry" />
        </mxCell>
        <mxCell id="ZXX-v3CZGw-HriFd5jeJ-58" value="KW_BEGIN" style="ellipse;whiteSpace=wrap;html=1;rounded=0;shadow=1;comic=0;labelBackgroundColor=none;strokeWidth=1;fontFamily=Verdana;fontSize=12;align=center;" parent="1" vertex="1">
          <mxGeometry x="440" y="120" width="75" height="50" as="geometry" />
        </mxCell>
        <mxCell id="ZXX-v3CZGw-HriFd5jeJ-59" value=".bh opt_decl_list.bs" style="ellipse;whiteSpace=wrap;html=1;rounded=0;shadow=1;comic=0;labelBackgroundColor=none;strokeWidth=1;fontFamily=Verdana;fontSize=12;align=center;" parent="1" vertex="1">
          <mxGeometry x="560" y="120" width="75" height="50" as="geometry" />
        </mxCell>
        <mxCell id="ZXX-v3CZGw-HriFd5jeJ-60" value="KW_END" style="ellipse;whiteSpace=wrap;html=1;rounded=0;shadow=1;comic=0;labelBackgroundColor=none;strokeWidth=1;fontFamily=Verdana;fontSize=12;align=center;" parent="1" vertex="1">
          <mxGeometry x="680" y="120" width="75" height="50" as="geometry" />
        </mxCell>
        <mxCell id="ZXX-v3CZGw-HriFd5jeJ-72" style="edgeStyle=orthogonalEdgeStyle;rounded=0;orthogonalLoop=1;jettySize=auto;html=1;exitX=0.5;exitY=1;exitDx=0;exitDy=0;" parent="1" source="ZXX-v3CZGw-HriFd5jeJ-68" target="ZXX-v3CZGw-HriFd5jeJ-69" edge="1">
          <mxGeometry relative="1" as="geometry" />
        </mxCell>
        <mxCell id="ZXX-v3CZGw-HriFd5jeJ-68" value=".bh opt_decl_list.bs" style="ellipse;whiteSpace=wrap;html=1;rounded=0;shadow=1;comic=0;labelBackgroundColor=none;strokeWidth=1;fontFamily=Verdana;fontSize=12;align=center;" parent="1" vertex="1">
          <mxGeometry x="513" y="240" width="75" height="50" as="geometry" />
        </mxCell>
        <mxCell id="ZXX-v3CZGw-HriFd5jeJ-69" value=".bh decl_list.bs" style="ellipse;whiteSpace=wrap;html=1;rounded=0;shadow=1;comic=0;labelBackgroundColor=none;strokeWidth=1;fontFamily=Verdana;fontSize=12;align=center;" parent="1" vertex="1">
          <mxGeometry x="513" y="320" width="75" height="50" as="geometry" />
        </mxCell>
        <mxCell id="ZXX-v3CZGw-HriFd5jeJ-71" style="edgeStyle=orthogonalEdgeStyle;rounded=0;orthogonalLoop=1;jettySize=auto;html=1;exitX=0.5;exitY=1;exitDx=0;exitDy=0;" parent="1" source="ZXX-v3CZGw-HriFd5jeJ-70" target="1ea317790d2ca983-9" edge="1">
          <mxGeometry relative="1" as="geometry" />
        </mxCell>
        <mxCell id="ZXX-v3CZGw-HriFd5jeJ-70" value=".bh opt_decl_list.bs" style="ellipse;whiteSpace=wrap;html=1;rounded=0;shadow=1;comic=0;labelBackgroundColor=none;strokeWidth=1;fontFamily=Verdana;fontSize=12;align=center;" parent="1" vertex="1">
          <mxGeometry x="295" y="240" width="75" height="50" as="geometry" />
        </mxCell>
        <mxCell id="ZXX-v3CZGw-HriFd5jeJ-78" style="edgeStyle=orthogonalEdgeStyle;rounded=0;orthogonalLoop=1;jettySize=auto;html=1;exitX=0.5;exitY=1;exitDx=0;exitDy=0;" parent="1" source="ZXX-v3CZGw-HriFd5jeJ-73" target="ZXX-v3CZGw-HriFd5jeJ-76" edge="1">
          <mxGeometry relative="1" as="geometry" />
        </mxCell>
        <mxCell id="ZXX-v3CZGw-HriFd5jeJ-79" style="edgeStyle=orthogonalEdgeStyle;rounded=0;orthogonalLoop=1;jettySize=auto;html=1;exitX=0.5;exitY=1;exitDx=0;exitDy=0;" parent="1" source="ZXX-v3CZGw-HriFd5jeJ-73" target="ZXX-v3CZGw-HriFd5jeJ-75" edge="1">
          <mxGeometry relative="1" as="geometry" />
        </mxCell>
        <mxCell id="ZXX-v3CZGw-HriFd5jeJ-80" style="edgeStyle=orthogonalEdgeStyle;rounded=0;orthogonalLoop=1;jettySize=auto;html=1;exitX=0.5;exitY=1;exitDx=0;exitDy=0;" parent="1" source="ZXX-v3CZGw-HriFd5jeJ-73" target="ZXX-v3CZGw-HriFd5jeJ-77" edge="1">
          <mxGeometry relative="1" as="geometry" />
        </mxCell>
        <mxCell id="ZXX-v3CZGw-HriFd5jeJ-73" value=".bh decl_list.bs" style="ellipse;whiteSpace=wrap;html=1;rounded=0;shadow=1;comic=0;labelBackgroundColor=none;strokeWidth=1;fontFamily=Verdana;fontSize=12;align=center;" parent="1" vertex="1">
          <mxGeometry x="610" y="440" width="75" height="50" as="geometry" />
        </mxCell>
        <mxCell id="ZXX-v3CZGw-HriFd5jeJ-74" value=".bh decl.bs" style="ellipse;whiteSpace=wrap;html=1;rounded=0;shadow=1;comic=0;labelBackgroundColor=none;strokeWidth=1;fontFamily=Verdana;fontSize=12;align=center;" parent="1" vertex="1">
          <mxGeometry x="295" y="530" width="75" height="50" as="geometry" />
        </mxCell>
        <mxCell id="ZXX-v3CZGw-HriFd5jeJ-75" value=".bh decl_list.bs" style="ellipse;whiteSpace=wrap;html=1;rounded=0;shadow=1;comic=0;labelBackgroundColor=none;strokeWidth=1;fontFamily=Verdana;fontSize=12;align=center;" parent="1" vertex="1">
          <mxGeometry x="475" y="540" width="75" height="50" as="geometry" />
        </mxCell>
        <mxCell id="ZXX-v3CZGw-HriFd5jeJ-76" value=";" style="ellipse;whiteSpace=wrap;html=1;rounded=0;shadow=1;comic=0;labelBackgroundColor=none;strokeWidth=1;fontFamily=Verdana;fontSize=12;align=center;" parent="1" vertex="1">
          <mxGeometry x="610" y="540" width="75" height="50" as="geometry" />
        </mxCell>
        <mxCell id="ZXX-v3CZGw-HriFd5jeJ-77" value=".bh decl.bs" style="ellipse;whiteSpace=wrap;html=1;rounded=0;shadow=1;comic=0;labelBackgroundColor=none;strokeWidth=1;fontFamily=Verdana;fontSize=12;align=center;" parent="1" vertex="1">
          <mxGeometry x="730" y="540" width="75" height="50" as="geometry" />
        </mxCell>
        <mxCell id="ZXX-v3CZGw-HriFd5jeJ-88" style="edgeStyle=orthogonalEdgeStyle;rounded=0;orthogonalLoop=1;jettySize=auto;html=1;exitX=0.5;exitY=1;exitDx=0;exitDy=0;" parent="1" source="ZXX-v3CZGw-HriFd5jeJ-82" target="ZXX-v3CZGw-HriFd5jeJ-85" edge="1">
          <mxGeometry relative="1" as="geometry" />
        </mxCell>
        <mxCell id="ZXX-v3CZGw-HriFd5jeJ-82" value=".bh decl.bs" style="ellipse;whiteSpace=wrap;html=1;rounded=0;shadow=1;comic=0;labelBackgroundColor=none;strokeWidth=1;fontFamily=Verdana;fontSize=12;align=center;" parent="1" vertex="1">
          <mxGeometry x="560" y="660" width="75" height="50" as="geometry" />
        </mxCell>
        <mxCell id="ZXX-v3CZGw-HriFd5jeJ-89" style="edgeStyle=orthogonalEdgeStyle;rounded=0;orthogonalLoop=1;jettySize=auto;html=1;exitX=0.5;exitY=1;exitDx=0;exitDy=0;" parent="1" source="ZXX-v3CZGw-HriFd5jeJ-83" target="ZXX-v3CZGw-HriFd5jeJ-86" edge="1">
          <mxGeometry relative="1" as="geometry" />
        </mxCell>
        <mxCell id="ZXX-v3CZGw-HriFd5jeJ-83" value=".bh decl.bs" style="ellipse;whiteSpace=wrap;html=1;rounded=0;shadow=1;comic=0;labelBackgroundColor=none;strokeWidth=1;fontFamily=Verdana;fontSize=12;align=center;" parent="1" vertex="1">
          <mxGeometry x="830" y="660" width="75" height="50" as="geometry" />
        </mxCell>
        <mxCell id="ZXX-v3CZGw-HriFd5jeJ-84" value=".bh var_decl.bs" style="ellipse;whiteSpace=wrap;html=1;rounded=0;shadow=1;comic=0;labelBackgroundColor=none;strokeWidth=1;fontFamily=Verdana;fontSize=12;align=center;" parent="1" vertex="1">
          <mxGeometry x="295" y="740" width="75" height="50" as="geometry" />
        </mxCell>
        <mxCell id="ZXX-v3CZGw-HriFd5jeJ-85" value=".bh proc_decl.bs" style="ellipse;whiteSpace=wrap;html=1;rounded=0;shadow=1;comic=0;labelBackgroundColor=none;strokeWidth=1;fontFamily=Verdana;fontSize=12;align=center;" parent="1" vertex="1">
          <mxGeometry x="560" y="740" width="75" height="50" as="geometry" />
        </mxCell>
        <mxCell id="ZXX-v3CZGw-HriFd5jeJ-86" value=".bh rec_decl.bs" style="ellipse;whiteSpace=wrap;html=1;rounded=0;shadow=1;comic=0;labelBackgroundColor=none;strokeWidth=1;fontFamily=Verdana;fontSize=12;align=center;" parent="1" vertex="1">
          <mxGeometry x="830" y="740" width="75" height="50" as="geometry" />
        </mxCell>
        <mxCell id="ZXX-v3CZGw-HriFd5jeJ-90" value="KW_VAR" style="ellipse;whiteSpace=wrap;html=1;rounded=0;shadow=1;comic=0;labelBackgroundColor=none;strokeWidth=1;fontFamily=Verdana;fontSize=12;align=center;" parent="1" vertex="1">
          <mxGeometry x="52.5" y="980" width="75" height="50" as="geometry" />
        </mxCell>
        <mxCell id="ZXX-v3CZGw-HriFd5jeJ-91" value=":" style="ellipse;whiteSpace=wrap;html=1;rounded=0;shadow=1;comic=0;labelBackgroundColor=none;strokeWidth=1;fontFamily=Verdana;fontSize=12;align=center;" parent="1" vertex="1">
          <mxGeometry x="367.5" y="980" width="75" height="50" as="geometry" />
        </mxCell>
        <mxCell id="ZXX-v3CZGw-HriFd5jeJ-92" value="ID.l" style="ellipse;whiteSpace=wrap;html=1;rounded=0;shadow=1;comic=0;labelBackgroundColor=none;strokeWidth=1;fontFamily=Verdana;fontSize=12;align=center;" parent="1" vertex="1">
          <mxGeometry x="197.5" y="980" width="75" height="50" as="geometry" />
        </mxCell>
        <mxCell id="ZXX-v3CZGw-HriFd5jeJ-93" value="type.t" style="ellipse;whiteSpace=wrap;html=1;rounded=0;shadow=1;comic=0;labelBackgroundColor=none;strokeWidth=1;fontFamily=Verdana;fontSize=12;align=center;" parent="1" vertex="1">
          <mxGeometry x="537.5" y="980" width="75" height="50" as="geometry" />
        </mxCell>
        <mxCell id="ZXX-v3CZGw-HriFd5jeJ-98" style="edgeStyle=orthogonalEdgeStyle;rounded=0;orthogonalLoop=1;jettySize=auto;html=1;exitX=0.5;exitY=1;exitDx=0;exitDy=0;" parent="1" source="ZXX-v3CZGw-HriFd5jeJ-102" target="ZXX-v3CZGw-HriFd5jeJ-104" edge="1">
          <mxGeometry relative="1" as="geometry" />
        </mxCell>
        <mxCell id="ZXX-v3CZGw-HriFd5jeJ-99" style="edgeStyle=orthogonalEdgeStyle;rounded=0;orthogonalLoop=1;jettySize=auto;html=1;exitX=0.5;exitY=1;exitDx=0;exitDy=0;" parent="1" source="ZXX-v3CZGw-HriFd5jeJ-102" target="ZXX-v3CZGw-HriFd5jeJ-105" edge="1">
          <mxGeometry relative="1" as="geometry" />
        </mxCell>
        <mxCell id="ZXX-v3CZGw-HriFd5jeJ-100" style="edgeStyle=orthogonalEdgeStyle;rounded=0;orthogonalLoop=1;jettySize=auto;html=1;exitX=0.5;exitY=1;exitDx=0;exitDy=0;" parent="1" source="ZXX-v3CZGw-HriFd5jeJ-102" target="ZXX-v3CZGw-HriFd5jeJ-103" edge="1">
          <mxGeometry relative="1" as="geometry" />
        </mxCell>
        <mxCell id="ZXX-v3CZGw-HriFd5jeJ-101" style="edgeStyle=orthogonalEdgeStyle;rounded=0;orthogonalLoop=1;jettySize=auto;html=1;exitX=0.5;exitY=1;exitDx=0;exitDy=0;" parent="1" source="ZXX-v3CZGw-HriFd5jeJ-102" target="ZXX-v3CZGw-HriFd5jeJ-106" edge="1">
          <mxGeometry relative="1" as="geometry" />
        </mxCell>
        <mxCell id="ZXX-v3CZGw-HriFd5jeJ-109" style="edgeStyle=orthogonalEdgeStyle;rounded=0;orthogonalLoop=1;jettySize=auto;html=1;exitX=0.5;exitY=1;exitDx=0;exitDy=0;" parent="1" source="ZXX-v3CZGw-HriFd5jeJ-102" target="ZXX-v3CZGw-HriFd5jeJ-107" edge="1">
          <mxGeometry relative="1" as="geometry" />
        </mxCell>
        <mxCell id="ZXX-v3CZGw-HriFd5jeJ-110" style="edgeStyle=orthogonalEdgeStyle;rounded=0;orthogonalLoop=1;jettySize=auto;html=1;exitX=0.5;exitY=1;exitDx=0;exitDy=0;" parent="1" source="ZXX-v3CZGw-HriFd5jeJ-102" target="ZXX-v3CZGw-HriFd5jeJ-108" edge="1">
          <mxGeometry relative="1" as="geometry" />
        </mxCell>
        <mxCell id="ZXX-v3CZGw-HriFd5jeJ-102" value=".bh var_decl.bs" style="ellipse;whiteSpace=wrap;html=1;rounded=0;shadow=1;comic=0;labelBackgroundColor=none;strokeWidth=1;fontFamily=Verdana;fontSize=12;align=center;" parent="1" vertex="1">
          <mxGeometry x="1100" y="890" width="75" height="50" as="geometry" />
        </mxCell>
        <mxCell id="ZXX-v3CZGw-HriFd5jeJ-103" value="KW_VAR" style="ellipse;whiteSpace=wrap;html=1;rounded=0;shadow=1;comic=0;labelBackgroundColor=none;strokeWidth=1;fontFamily=Verdana;fontSize=12;align=center;" parent="1" vertex="1">
          <mxGeometry x="700" y="980" width="75" height="50" as="geometry" />
        </mxCell>
        <mxCell id="ZXX-v3CZGw-HriFd5jeJ-104" value=":" style="ellipse;whiteSpace=wrap;html=1;rounded=0;shadow=1;comic=0;labelBackgroundColor=none;strokeWidth=1;fontFamily=Verdana;fontSize=12;align=center;" parent="1" vertex="1">
          <mxGeometry x="1015" y="980" width="75" height="50" as="geometry" />
        </mxCell>
        <mxCell id="ZXX-v3CZGw-HriFd5jeJ-105" value="ID.l" style="ellipse;whiteSpace=wrap;html=1;rounded=0;shadow=1;comic=0;labelBackgroundColor=none;strokeWidth=1;fontFamily=Verdana;fontSize=12;align=center;" parent="1" vertex="1">
          <mxGeometry x="845" y="980" width="75" height="50" as="geometry" />
        </mxCell>
        <mxCell id="ZXX-v3CZGw-HriFd5jeJ-106" value="type.t" style="ellipse;whiteSpace=wrap;html=1;rounded=0;shadow=1;comic=0;labelBackgroundColor=none;strokeWidth=1;fontFamily=Verdana;fontSize=12;align=center;" parent="1" vertex="1">
          <mxGeometry x="1185" y="980" width="75" height="50" as="geometry" />
        </mxCell>
        <mxCell id="ZXX-v3CZGw-HriFd5jeJ-107" value=":=" style="ellipse;whiteSpace=wrap;html=1;rounded=0;shadow=1;comic=0;labelBackgroundColor=none;strokeWidth=1;fontFamily=Verdana;fontSize=12;align=center;" parent="1" vertex="1">
          <mxGeometry x="1360" y="980" width="75" height="50" as="geometry" />
        </mxCell>
        <mxCell id="ZXX-v3CZGw-HriFd5jeJ-108" value=".bh exp.bs" style="ellipse;whiteSpace=wrap;html=1;rounded=0;shadow=1;comic=0;labelBackgroundColor=none;strokeWidth=1;fontFamily=Verdana;fontSize=12;align=center;" parent="1" vertex="1">
          <mxGeometry x="1540" y="980" width="75" height="50" as="geometry" />
        </mxCell>
        <mxCell id="ZXX-v3CZGw-HriFd5jeJ-111" style="edgeStyle=orthogonalEdgeStyle;rounded=0;orthogonalLoop=1;jettySize=auto;html=1;exitX=0.5;exitY=1;exitDx=0;exitDy=0;" parent="1" source="ZXX-v3CZGw-HriFd5jeJ-115" target="ZXX-v3CZGw-HriFd5jeJ-117" edge="1">
          <mxGeometry relative="1" as="geometry" />
        </mxCell>
        <mxCell id="ZXX-v3CZGw-HriFd5jeJ-112" style="edgeStyle=orthogonalEdgeStyle;rounded=0;orthogonalLoop=1;jettySize=auto;html=1;exitX=0.5;exitY=1;exitDx=0;exitDy=0;" parent="1" source="ZXX-v3CZGw-HriFd5jeJ-115" target="ZXX-v3CZGw-HriFd5jeJ-118" edge="1">
          <mxGeometry relative="1" as="geometry" />
        </mxCell>
        <mxCell id="ZXX-v3CZGw-HriFd5jeJ-113" style="edgeStyle=orthogonalEdgeStyle;rounded=0;orthogonalLoop=1;jettySize=auto;html=1;exitX=0.5;exitY=1;exitDx=0;exitDy=0;" parent="1" source="ZXX-v3CZGw-HriFd5jeJ-115" target="ZXX-v3CZGw-HriFd5jeJ-116" edge="1">
          <mxGeometry relative="1" as="geometry" />
        </mxCell>
        <mxCell id="ZXX-v3CZGw-HriFd5jeJ-114" style="edgeStyle=orthogonalEdgeStyle;rounded=0;orthogonalLoop=1;jettySize=auto;html=1;exitX=0.5;exitY=1;exitDx=0;exitDy=0;" parent="1" source="ZXX-v3CZGw-HriFd5jeJ-115" target="ZXX-v3CZGw-HriFd5jeJ-119" edge="1">
          <mxGeometry relative="1" as="geometry" />
        </mxCell>
        <mxCell id="ZXX-v3CZGw-HriFd5jeJ-115" value=".bh var_decl.bs" style="ellipse;whiteSpace=wrap;html=1;rounded=0;shadow=1;comic=0;labelBackgroundColor=none;strokeWidth=1;fontFamily=Verdana;fontSize=12;align=center;" parent="1" vertex="1">
          <mxGeometry x="1980" y="900" width="75" height="50" as="geometry" />
        </mxCell>
        <mxCell id="ZXX-v3CZGw-HriFd5jeJ-116" value="KW_VAR" style="ellipse;whiteSpace=wrap;html=1;rounded=0;shadow=1;comic=0;labelBackgroundColor=none;strokeWidth=1;fontFamily=Verdana;fontSize=12;align=center;" parent="1" vertex="1">
          <mxGeometry x="1740" y="990" width="75" height="50" as="geometry" />
        </mxCell>
        <mxCell id="ZXX-v3CZGw-HriFd5jeJ-117" value=":=" style="ellipse;whiteSpace=wrap;html=1;rounded=0;shadow=1;comic=0;labelBackgroundColor=none;strokeWidth=1;fontFamily=Verdana;fontSize=12;align=center;" parent="1" vertex="1">
          <mxGeometry x="2055" y="990" width="75" height="50" as="geometry" />
        </mxCell>
        <mxCell id="ZXX-v3CZGw-HriFd5jeJ-118" value="ID.l" style="ellipse;whiteSpace=wrap;html=1;rounded=0;shadow=1;comic=0;labelBackgroundColor=none;strokeWidth=1;fontFamily=Verdana;fontSize=12;align=center;" parent="1" vertex="1">
          <mxGeometry x="1885" y="990" width="75" height="50" as="geometry" />
        </mxCell>
        <mxCell id="ZXX-v3CZGw-HriFd5jeJ-119" value=".bh exp.bs" style="ellipse;whiteSpace=wrap;html=1;rounded=0;shadow=1;comic=0;labelBackgroundColor=none;strokeWidth=1;fontFamily=Verdana;fontSize=12;align=center;" parent="1" vertex="1">
          <mxGeometry x="2225" y="990" width="75" height="50" as="geometry" />
        </mxCell>
        <mxCell id="ZXX-v3CZGw-HriFd5jeJ-120" value="Îµ" style="ellipse;whiteSpace=wrap;html=1;rounded=0;shadow=1;comic=0;labelBackgroundColor=none;strokeWidth=1;fontFamily=Verdana;fontSize=12;align=center;" parent="1" vertex="1">
          <mxGeometry x="292.5" y="1250" width="75" height="50" as="geometry" />
        </mxCell>
        <mxCell id="ZXX-v3CZGw-HriFd5jeJ-122" style="edgeStyle=orthogonalEdgeStyle;rounded=0;orthogonalLoop=1;jettySize=auto;html=1;exitX=0.5;exitY=1;exitDx=0;exitDy=0;" parent="1" source="ZXX-v3CZGw-HriFd5jeJ-123" target="ZXX-v3CZGw-HriFd5jeJ-124" edge="1">
          <mxGeometry relative="1" as="geometry" />
        </mxCell>
        <mxCell id="ZXX-v3CZGw-HriFd5jeJ-126" style="edgeStyle=orthogonalEdgeStyle;rounded=0;orthogonalLoop=1;jettySize=auto;html=1;exitX=0.5;exitY=1;exitDx=0;exitDy=0;" parent="1" source="ZXX-v3CZGw-HriFd5jeJ-123" target="ZXX-v3CZGw-HriFd5jeJ-125" edge="1">
          <mxGeometry relative="1" as="geometry" />
        </mxCell>
        <mxCell id="ZXX-v3CZGw-HriFd5jeJ-123" value=".bh opt_proc_return_type.bs" style="ellipse;whiteSpace=wrap;html=1;rounded=0;shadow=1;comic=0;labelBackgroundColor=none;strokeWidth=1;fontFamily=Verdana;fontSize=12;align=center;" parent="1" vertex="1">
          <mxGeometry x="665" y="1170" width="75" height="50" as="geometry" />
        </mxCell>
        <mxCell id="ZXX-v3CZGw-HriFd5jeJ-124" value=":" style="ellipse;whiteSpace=wrap;html=1;rounded=0;shadow=1;comic=0;labelBackgroundColor=none;strokeWidth=1;fontFamily=Verdana;fontSize=12;align=center;" parent="1" vertex="1">
          <mxGeometry x="580" y="1260" width="75" height="50" as="geometry" />
        </mxCell>
        <mxCell id="ZXX-v3CZGw-HriFd5jeJ-125" value="type.t" style="ellipse;whiteSpace=wrap;html=1;rounded=0;shadow=1;comic=0;labelBackgroundColor=none;strokeWidth=1;fontFamily=Verdana;fontSize=12;align=center;" parent="1" vertex="1">
          <mxGeometry x="740" y="1260" width="75" height="50" as="geometry" />
        </mxCell>
        <mxCell id="ZXX-v3CZGw-HriFd5jeJ-127" value="ID.l" style="ellipse;whiteSpace=wrap;html=1;rounded=0;shadow=1;comic=0;labelBackgroundColor=none;strokeWidth=1;fontFamily=Verdana;fontSize=12;align=center;" parent="1" vertex="1">
          <mxGeometry x="310" y="1530" width="75" height="50" as="geometry" />
        </mxCell>
        <mxCell id="ZXX-v3CZGw-HriFd5jeJ-128" value=".bh opt_paramfield_decl_list_comma.bs" style="ellipse;whiteSpace=wrap;html=1;rounded=0;shadow=1;comic=0;labelBackgroundColor=none;strokeWidth=1;fontFamily=Verdana;fontSize=12;align=center;" parent="1" vertex="1">
          <mxGeometry x="570" y="1530" width="75" height="50" as="geometry" />
        </mxCell>
        <mxCell id="ZXX-v3CZGw-HriFd5jeJ-129" value=".bh opt_proc_return_type.bs" style="ellipse;whiteSpace=wrap;html=1;rounded=0;shadow=1;comic=0;labelBackgroundColor=none;strokeWidth=1;fontFamily=Verdana;fontSize=12;align=center;" parent="1" vertex="1">
          <mxGeometry x="840" y="1530" width="75" height="50" as="geometry" />
        </mxCell>
        <mxCell id="ZXX-v3CZGw-HriFd5jeJ-130" value="KW_BEGIN" style="ellipse;whiteSpace=wrap;html=1;rounded=0;shadow=1;comic=0;labelBackgroundColor=none;strokeWidth=1;fontFamily=Verdana;fontSize=12;align=center;" parent="1" vertex="1">
          <mxGeometry x="960" y="1530" width="75" height="50" as="geometry" />
        </mxCell>
        <mxCell id="ZXX-v3CZGw-HriFd5jeJ-131" value="KW_END" style="ellipse;whiteSpace=wrap;html=1;rounded=0;shadow=1;comic=0;labelBackgroundColor=none;strokeWidth=1;fontFamily=Verdana;fontSize=12;align=center;" parent="1" vertex="1">
          <mxGeometry x="1170" y="1530" width="75" height="50" as="geometry" />
        </mxCell>
        <mxCell id="ZXX-v3CZGw-HriFd5jeJ-132" value=".bh proc_body.bs" style="ellipse;whiteSpace=wrap;html=1;rounded=0;shadow=1;comic=0;labelBackgroundColor=none;strokeWidth=1;fontFamily=Verdana;fontSize=12;align=center;" parent="1" vertex="1">
          <mxGeometry x="1060" y="1530" width="75" height="50" as="geometry" />
        </mxCell>
        <mxCell id="ZXX-v3CZGw-HriFd5jeJ-133" value="KW_PROCEDURE" style="ellipse;whiteSpace=wrap;html=1;rounded=0;shadow=1;comic=0;labelBackgroundColor=none;strokeWidth=1;fontFamily=Verdana;fontSize=12;align=center;" parent="1" vertex="1">
          <mxGeometry x="202.5" y="1530" width="75" height="50" as="geometry" />
        </mxCell>
        <mxCell id="ZXX-v3CZGw-HriFd5jeJ-134" value="(" style="ellipse;whiteSpace=wrap;html=1;rounded=0;shadow=1;comic=0;labelBackgroundColor=none;strokeWidth=1;fontFamily=Verdana;fontSize=12;align=center;" parent="1" vertex="1">
          <mxGeometry x="420" y="1530" width="75" height="50" as="geometry" />
        </mxCell>
        <mxCell id="ZXX-v3CZGw-HriFd5jeJ-135" value=")" style="ellipse;whiteSpace=wrap;html=1;rounded=0;shadow=1;comic=0;labelBackgroundColor=none;strokeWidth=1;fontFamily=Verdana;fontSize=12;align=center;" parent="1" vertex="1">
          <mxGeometry x="720" y="1530" width="75" height="50" as="geometry" />
        </mxCell>
        <mxCell id="ZXX-v3CZGw-HriFd5jeJ-146" value=".bh opt_stmt_list.bs" style="ellipse;whiteSpace=wrap;html=1;rounded=0;shadow=1;comic=0;labelBackgroundColor=none;strokeWidth=1;fontFamily=Verdana;fontSize=12;align=center;" parent="1" vertex="1">
          <mxGeometry x="460" y="1810" width="75" height="50" as="geometry" />
        </mxCell>
        <mxCell id="ZXX-v3CZGw-HriFd5jeJ-147" value=".bh opt_decl_list.bs" style="ellipse;whiteSpace=wrap;html=1;rounded=0;shadow=1;comic=0;labelBackgroundColor=none;strokeWidth=1;fontFamily=Verdana;fontSize=12;align=center;" parent="1" vertex="1">
          <mxGeometry x="655" y="1810" width="75" height="50" as="geometry" />
        </mxCell>
        <mxCell id="ZXX-v3CZGw-HriFd5jeJ-152" style="edgeStyle=orthogonalEdgeStyle;rounded=0;orthogonalLoop=1;jettySize=auto;html=1;exitX=0.5;exitY=1;exitDx=0;exitDy=0;" parent="1" source="ZXX-v3CZGw-HriFd5jeJ-148" target="ZXX-v3CZGw-HriFd5jeJ-149" edge="1">
          <mxGeometry relative="1" as="geometry" />
        </mxCell>
        <mxCell id="ZXX-v3CZGw-HriFd5jeJ-153" style="edgeStyle=orthogonalEdgeStyle;rounded=0;orthogonalLoop=1;jettySize=auto;html=1;exitX=0.5;exitY=1;exitDx=0;exitDy=0;" parent="1" source="ZXX-v3CZGw-HriFd5jeJ-148" target="ZXX-v3CZGw-HriFd5jeJ-147" edge="1">
          <mxGeometry relative="1" as="geometry" />
        </mxCell>
        <mxCell id="ZXX-v3CZGw-HriFd5jeJ-154" style="edgeStyle=orthogonalEdgeStyle;rounded=0;orthogonalLoop=1;jettySize=auto;html=1;exitX=0.5;exitY=1;exitDx=0;exitDy=0;" parent="1" source="ZXX-v3CZGw-HriFd5jeJ-148" target="ZXX-v3CZGw-HriFd5jeJ-150" edge="1">
          <mxGeometry relative="1" as="geometry" />
        </mxCell>
        <mxCell id="ZXX-v3CZGw-HriFd5jeJ-148" value=".bh proc_body.bs" style="ellipse;whiteSpace=wrap;html=1;rounded=0;shadow=1;comic=0;labelBackgroundColor=none;strokeWidth=1;fontFamily=Verdana;fontSize=12;align=center;" parent="1" vertex="1">
          <mxGeometry x="795" y="1720" width="75" height="50" as="geometry" />
        </mxCell>
        <mxCell id="ZXX-v3CZGw-HriFd5jeJ-149" value="KW_IN" style="ellipse;whiteSpace=wrap;html=1;rounded=0;shadow=1;comic=0;labelBackgroundColor=none;strokeWidth=1;fontFamily=Verdana;fontSize=12;align=center;" parent="1" vertex="1">
          <mxGeometry x="795" y="1810" width="75" height="50" as="geometry" />
        </mxCell>
        <mxCell id="ZXX-v3CZGw-HriFd5jeJ-150" value=".bh opt_stmt_list.bs" style="ellipse;whiteSpace=wrap;html=1;rounded=0;shadow=1;comic=0;labelBackgroundColor=none;strokeWidth=1;fontFamily=Verdana;fontSize=12;align=center;" parent="1" vertex="1">
          <mxGeometry x="930" y="1810" width="75" height="50" as="geometry" />
        </mxCell>
        <mxCell id="ZXX-v3CZGw-HriFd5jeJ-155" value="KW_STRUCT" style="ellipse;whiteSpace=wrap;html=1;rounded=0;shadow=1;comic=0;labelBackgroundColor=none;strokeWidth=1;fontFamily=Verdana;fontSize=12;align=center;" parent="1" vertex="1">
          <mxGeometry x="340" y="2080" width="75" height="50" as="geometry" />
        </mxCell>
        <mxCell id="ZXX-v3CZGw-HriFd5jeJ-156" value="ID.l" style="ellipse;whiteSpace=wrap;html=1;rounded=0;shadow=1;comic=0;labelBackgroundColor=none;strokeWidth=1;fontFamily=Verdana;fontSize=12;align=center;" parent="1" vertex="1">
          <mxGeometry x="462.5" y="2080" width="75" height="50" as="geometry" />
        </mxCell>
        <mxCell id="ZXX-v3CZGw-HriFd5jeJ-157" value="{" style="ellipse;whiteSpace=wrap;html=1;rounded=0;shadow=1;comic=0;labelBackgroundColor=none;strokeWidth=1;fontFamily=Verdana;fontSize=12;align=center;" parent="1" vertex="1">
          <mxGeometry x="595" y="2080" width="75" height="50" as="geometry" />
        </mxCell>
        <mxCell id="ZXX-v3CZGw-HriFd5jeJ-158" value="}" style="ellipse;whiteSpace=wrap;html=1;rounded=0;shadow=1;comic=0;labelBackgroundColor=none;strokeWidth=1;fontFamily=Verdana;fontSize=12;align=center;" parent="1" vertex="1">
          <mxGeometry x="957.5" y="2080" width="75" height="50" as="geometry" />
        </mxCell>
        <mxCell id="ZXX-v3CZGw-HriFd5jeJ-159" value=".bh opt_paramfield_decl_list_semicolumn.bs" style="ellipse;whiteSpace=wrap;html=1;rounded=0;shadow=1;comic=0;labelBackgroundColor=none;strokeWidth=1;fontFamily=Verdana;fontSize=12;align=center;" parent="1" vertex="1">
          <mxGeometry x="775" y="2080" width="75" height="50" as="geometry" />
        </mxCell>
        <mxCell id="ZXX-v3CZGw-HriFd5jeJ-166" value="ID.l" style="ellipse;whiteSpace=wrap;html=1;rounded=0;shadow=1;comic=0;labelBackgroundColor=none;strokeWidth=1;fontFamily=Verdana;fontSize=12;align=center;" parent="1" vertex="1">
          <mxGeometry x="330" y="2320" width="75" height="50" as="geometry" />
        </mxCell>
        <mxCell id="ZXX-v3CZGw-HriFd5jeJ-167" value=":" style="ellipse;whiteSpace=wrap;html=1;rounded=0;shadow=1;comic=0;labelBackgroundColor=none;strokeWidth=1;fontFamily=Verdana;fontSize=12;align=center;" parent="1" vertex="1">
          <mxGeometry x="440" y="2320" width="75" height="50" as="geometry" />
        </mxCell>
        <mxCell id="ZXX-v3CZGw-HriFd5jeJ-168" value="type.t" style="ellipse;whiteSpace=wrap;html=1;rounded=0;shadow=1;comic=0;labelBackgroundColor=none;strokeWidth=1;fontFamily=Verdana;fontSize=12;align=center;" parent="1" vertex="1">
          <mxGeometry x="550" y="2320" width="75" height="50" as="geometry" />
        </mxCell>
        <mxCell id="ZXX-v3CZGw-HriFd5jeJ-172" value="Îµ" style="ellipse;whiteSpace=wrap;html=1;rounded=0;shadow=1;comic=0;labelBackgroundColor=none;strokeWidth=1;fontFamily=Verdana;fontSize=12;align=center;" parent="1" vertex="1">
          <mxGeometry x="438" y="2590" width="75" height="50" as="geometry" />
        </mxCell>
        <mxCell id="ZXX-v3CZGw-HriFd5jeJ-178" style="edgeStyle=orthogonalEdgeStyle;rounded=0;orthogonalLoop=1;jettySize=auto;html=1;exitX=0.5;exitY=1;exitDx=0;exitDy=0;" parent="1" source="ZXX-v3CZGw-HriFd5jeJ-175" target="ZXX-v3CZGw-HriFd5jeJ-177" edge="1">
          <mxGeometry relative="1" as="geometry" />
        </mxCell>
        <mxCell id="ZXX-v3CZGw-HriFd5jeJ-175" value=".bh opt_paramfield_decl_list_comma.bs" style="ellipse;whiteSpace=wrap;html=1;rounded=0;shadow=1;comic=0;labelBackgroundColor=none;strokeWidth=1;fontFamily=Verdana;fontSize=12;align=center;" parent="1" vertex="1">
          <mxGeometry x="770" y="2490" width="75" height="50" as="geometry" />
        </mxCell>
        <mxCell id="ZXX-v3CZGw-HriFd5jeJ-177" value=".bh paramfield_decl_list_comma.bs" style="ellipse;whiteSpace=wrap;html=1;rounded=0;shadow=1;comic=0;labelBackgroundColor=none;strokeWidth=1;fontFamily=Verdana;fontSize=12;align=center;" parent="1" vertex="1">
          <mxGeometry x="770" y="2590" width="75" height="50" as="geometry" />
        </mxCell>
        <mxCell id="Opo9EoXG69oaY7-Oztma-1" value="&amp;amp;&amp;amp;" style="ellipse;whiteSpace=wrap;html=1;rounded=0;shadow=1;comic=0;labelBackgroundColor=none;strokeWidth=1;fontFamily=Verdana;fontSize=12;align=center;" parent="1" vertex="1">
          <mxGeometry x="442.5" y="2840" width="75" height="50" as="geometry" />
        </mxCell>
        <mxCell id="Opo9EoXG69oaY7-Oztma-7" value=".bh exp.bs" style="ellipse;whiteSpace=wrap;html=1;rounded=0;shadow=1;comic=0;labelBackgroundColor=none;strokeWidth=1;fontFamily=Verdana;fontSize=12;align=center;" parent="1" vertex="1">
          <mxGeometry x="340" y="2840" width="75" height="50" as="geometry" />
        </mxCell>
        <mxCell id="Opo9EoXG69oaY7-Oztma-8" value=".bh exp.bs" style="ellipse;whiteSpace=wrap;html=1;rounded=0;shadow=1;comic=0;labelBackgroundColor=none;strokeWidth=1;fontFamily=Verdana;fontSize=12;align=center;" parent="1" vertex="1">
          <mxGeometry x="545" y="2840" width="75" height="50" as="geometry" />
        </mxCell>
        <mxCell id="Opo9EoXG69oaY7-Oztma-14" style="edgeStyle=orthogonalEdgeStyle;rounded=0;orthogonalLoop=1;jettySize=auto;html=1;exitX=0.5;exitY=1;exitDx=0;exitDy=0;" parent="1" source="Opo9EoXG69oaY7-Oztma-17" target="Opo9EoXG69oaY7-Oztma-18" edge="1">
          <mxGeometry relative="1" as="geometry" />
        </mxCell>
        <mxCell id="Opo9EoXG69oaY7-Oztma-16" style="edgeStyle=orthogonalEdgeStyle;rounded=0;orthogonalLoop=1;jettySize=auto;html=1;exitX=0.5;exitY=1;exitDx=0;exitDy=0;" parent="1" source="Opo9EoXG69oaY7-Oztma-17" target="Opo9EoXG69oaY7-Oztma-20" edge="1">
          <mxGeometry relative="1" as="geometry" />
        </mxCell>
        <mxCell id="Opo9EoXG69oaY7-Oztma-17" value=".bh exp.bs" style="ellipse;whiteSpace=wrap;html=1;rounded=0;shadow=1;comic=0;labelBackgroundColor=none;strokeWidth=1;fontFamily=Verdana;fontSize=12;align=center;" parent="1" vertex="1">
          <mxGeometry x="737.5" y="2750" width="75" height="50" as="geometry" />
        </mxCell>
        <mxCell id="Opo9EoXG69oaY7-Oztma-18" value="not" style="ellipse;whiteSpace=wrap;html=1;rounded=0;shadow=1;comic=0;labelBackgroundColor=none;strokeWidth=1;fontFamily=Verdana;fontSize=12;align=center;" parent="1" vertex="1">
          <mxGeometry x="667.5" y="2840" width="75" height="50" as="geometry" />
        </mxCell>
        <mxCell id="Opo9EoXG69oaY7-Oztma-20" value=".bh exp.bs" style="ellipse;whiteSpace=wrap;html=1;rounded=0;shadow=1;comic=0;labelBackgroundColor=none;strokeWidth=1;fontFamily=Verdana;fontSize=12;align=center;" parent="1" vertex="1">
          <mxGeometry x="792.5" y="2840" width="75" height="50" as="geometry" />
        </mxCell>
        <mxCell id="Opo9EoXG69oaY7-Oztma-21" style="edgeStyle=orthogonalEdgeStyle;rounded=0;orthogonalLoop=1;jettySize=auto;html=1;exitX=0.5;exitY=1;exitDx=0;exitDy=0;" parent="1" source="Opo9EoXG69oaY7-Oztma-24" target="Opo9EoXG69oaY7-Oztma-25" edge="1">
          <mxGeometry relative="1" as="geometry" />
        </mxCell>
        <mxCell id="Opo9EoXG69oaY7-Oztma-22" style="edgeStyle=orthogonalEdgeStyle;rounded=0;orthogonalLoop=1;jettySize=auto;html=1;exitX=0.5;exitY=1;exitDx=0;exitDy=0;" parent="1" source="Opo9EoXG69oaY7-Oztma-24" target="Opo9EoXG69oaY7-Oztma-26" edge="1">
          <mxGeometry relative="1" as="geometry" />
        </mxCell>
        <mxCell id="Opo9EoXG69oaY7-Oztma-23" style="edgeStyle=orthogonalEdgeStyle;rounded=0;orthogonalLoop=1;jettySize=auto;html=1;exitX=0.5;exitY=1;exitDx=0;exitDy=0;" parent="1" source="Opo9EoXG69oaY7-Oztma-24" target="Opo9EoXG69oaY7-Oztma-27" edge="1">
          <mxGeometry relative="1" as="geometry" />
        </mxCell>
        <mxCell id="Opo9EoXG69oaY7-Oztma-24" value=".bh exp.bs" style="ellipse;whiteSpace=wrap;html=1;rounded=0;shadow=1;comic=0;labelBackgroundColor=none;strokeWidth=1;fontFamily=Verdana;fontSize=12;align=center;" parent="1" vertex="1">
          <mxGeometry x="1032.5" y="2750" width="75" height="50" as="geometry" />
        </mxCell>
        <mxCell id="Opo9EoXG69oaY7-Oztma-25" value="&amp;lt;" style="ellipse;whiteSpace=wrap;html=1;rounded=0;shadow=1;comic=0;labelBackgroundColor=none;strokeWidth=1;fontFamily=Verdana;fontSize=12;align=center;" parent="1" vertex="1">
          <mxGeometry x="1032.5" y="2840" width="75" height="50" as="geometry" />
        </mxCell>
        <mxCell id="Opo9EoXG69oaY7-Oztma-26" value=".bh exp.bs" style="ellipse;whiteSpace=wrap;html=1;rounded=0;shadow=1;comic=0;labelBackgroundColor=none;strokeWidth=1;fontFamily=Verdana;fontSize=12;align=center;" parent="1" vertex="1">
          <mxGeometry x="930" y="2840" width="75" height="50" as="geometry" />
        </mxCell>
        <mxCell id="Opo9EoXG69oaY7-Oztma-27" value=".bh exp.bs" style="ellipse;whiteSpace=wrap;html=1;rounded=0;shadow=1;comic=0;labelBackgroundColor=none;strokeWidth=1;fontFamily=Verdana;fontSize=12;align=center;" parent="1" vertex="1">
          <mxGeometry x="1135" y="2840" width="75" height="50" as="geometry" />
        </mxCell>
        <mxCell id="Opo9EoXG69oaY7-Oztma-28" style="edgeStyle=orthogonalEdgeStyle;rounded=0;orthogonalLoop=1;jettySize=auto;html=1;exitX=0.5;exitY=1;exitDx=0;exitDy=0;" parent="1" source="Opo9EoXG69oaY7-Oztma-31" target="Opo9EoXG69oaY7-Oztma-32" edge="1">
          <mxGeometry relative="1" as="geometry" />
        </mxCell>
        <mxCell id="Opo9EoXG69oaY7-Oztma-29" style="edgeStyle=orthogonalEdgeStyle;rounded=0;orthogonalLoop=1;jettySize=auto;html=1;exitX=0.5;exitY=1;exitDx=0;exitDy=0;" parent="1" source="Opo9EoXG69oaY7-Oztma-31" target="Opo9EoXG69oaY7-Oztma-33" edge="1">
          <mxGeometry relative="1" as="geometry" />
        </mxCell>
        <mxCell id="Opo9EoXG69oaY7-Oztma-30" style="edgeStyle=orthogonalEdgeStyle;rounded=0;orthogonalLoop=1;jettySize=auto;html=1;exitX=0.5;exitY=1;exitDx=0;exitDy=0;" parent="1" source="Opo9EoXG69oaY7-Oztma-31" target="Opo9EoXG69oaY7-Oztma-34" edge="1">
          <mxGeometry relative="1" as="geometry" />
        </mxCell>
        <mxCell id="Opo9EoXG69oaY7-Oztma-31" value=".bh exp.bs" style="ellipse;whiteSpace=wrap;html=1;rounded=0;shadow=1;comic=0;labelBackgroundColor=none;strokeWidth=1;fontFamily=Verdana;fontSize=12;align=center;" parent="1" vertex="1">
          <mxGeometry x="1412.5" y="2750" width="75" height="50" as="geometry" />
        </mxCell>
        <mxCell id="Opo9EoXG69oaY7-Oztma-32" value="+" style="ellipse;whiteSpace=wrap;html=1;rounded=0;shadow=1;comic=0;labelBackgroundColor=none;strokeWidth=1;fontFamily=Verdana;fontSize=12;align=center;" parent="1" vertex="1">
          <mxGeometry x="1412.5" y="2840" width="75" height="50" as="geometry" />
        </mxCell>
        <mxCell id="Opo9EoXG69oaY7-Oztma-33" value=".bh exp.bs" style="ellipse;whiteSpace=wrap;html=1;rounded=0;shadow=1;comic=0;labelBackgroundColor=none;strokeWidth=1;fontFamily=Verdana;fontSize=12;align=center;" parent="1" vertex="1">
          <mxGeometry x="1310" y="2840" width="75" height="50" as="geometry" />
        </mxCell>
        <mxCell id="Opo9EoXG69oaY7-Oztma-34" value=".bh exp.bs" style="ellipse;whiteSpace=wrap;html=1;rounded=0;shadow=1;comic=0;labelBackgroundColor=none;strokeWidth=1;fontFamily=Verdana;fontSize=12;align=center;" parent="1" vertex="1">
          <mxGeometry x="1515" y="2840" width="75" height="50" as="geometry" />
        </mxCell>
        <mxCell id="Opo9EoXG69oaY7-Oztma-35" style="edgeStyle=orthogonalEdgeStyle;rounded=0;orthogonalLoop=1;jettySize=auto;html=1;exitX=0.5;exitY=1;exitDx=0;exitDy=0;" parent="1" source="Opo9EoXG69oaY7-Oztma-37" target="Opo9EoXG69oaY7-Oztma-38" edge="1">
          <mxGeometry relative="1" as="geometry" />
        </mxCell>
        <mxCell id="Opo9EoXG69oaY7-Oztma-36" style="edgeStyle=orthogonalEdgeStyle;rounded=0;orthogonalLoop=1;jettySize=auto;html=1;exitX=0.5;exitY=1;exitDx=0;exitDy=0;" parent="1" source="Opo9EoXG69oaY7-Oztma-37" target="Opo9EoXG69oaY7-Oztma-39" edge="1">
          <mxGeometry relative="1" as="geometry" />
        </mxCell>
        <mxCell id="Opo9EoXG69oaY7-Oztma-37" value=".bh exp.bs" style="ellipse;whiteSpace=wrap;html=1;rounded=0;shadow=1;comic=0;labelBackgroundColor=none;strokeWidth=1;fontFamily=Verdana;fontSize=12;align=center;" parent="1" vertex="1">
          <mxGeometry x="1760" y="2750" width="75" height="50" as="geometry" />
        </mxCell>
        <mxCell id="Opo9EoXG69oaY7-Oztma-38" value="-" style="ellipse;whiteSpace=wrap;html=1;rounded=0;shadow=1;comic=0;labelBackgroundColor=none;strokeWidth=1;fontFamily=Verdana;fontSize=12;align=center;" parent="1" vertex="1">
          <mxGeometry x="1690" y="2840" width="75" height="50" as="geometry" />
        </mxCell>
        <mxCell id="Opo9EoXG69oaY7-Oztma-39" value=".bh exp.bs" style="ellipse;whiteSpace=wrap;html=1;rounded=0;shadow=1;comic=0;labelBackgroundColor=none;strokeWidth=1;fontFamily=Verdana;fontSize=12;align=center;" parent="1" vertex="1">
          <mxGeometry x="1815" y="2840" width="75" height="50" as="geometry" />
        </mxCell>
        <mxCell id="Opo9EoXG69oaY7-Oztma-40" style="edgeStyle=orthogonalEdgeStyle;rounded=0;orthogonalLoop=1;jettySize=auto;html=1;exitX=0.5;exitY=1;exitDx=0;exitDy=0;" parent="1" source="Opo9EoXG69oaY7-Oztma-41" target="Opo9EoXG69oaY7-Oztma-42" edge="1">
          <mxGeometry relative="1" as="geometry" />
        </mxCell>
        <mxCell id="Opo9EoXG69oaY7-Oztma-41" value=".bh exp.bs" style="ellipse;whiteSpace=wrap;html=1;rounded=0;shadow=1;comic=0;labelBackgroundColor=none;strokeWidth=1;fontFamily=Verdana;fontSize=12;align=center;" parent="1" vertex="1">
          <mxGeometry x="340" y="2980" width="75" height="50" as="geometry" />
        </mxCell>
        <mxCell id="Opo9EoXG69oaY7-Oztma-42" value="literal.t" style="ellipse;whiteSpace=wrap;html=1;rounded=0;shadow=1;comic=0;labelBackgroundColor=none;strokeWidth=1;fontFamily=Verdana;fontSize=12;align=center;" parent="1" vertex="1">
          <mxGeometry x="340" y="3070" width="75" height="50" as="geometry" />
        </mxCell>
        <mxCell id="Opo9EoXG69oaY7-Oztma-43" style="edgeStyle=orthogonalEdgeStyle;rounded=0;orthogonalLoop=1;jettySize=auto;html=1;exitX=0.5;exitY=1;exitDx=0;exitDy=0;" parent="1" source="Opo9EoXG69oaY7-Oztma-44" target="Opo9EoXG69oaY7-Oztma-45" edge="1">
          <mxGeometry relative="1" as="geometry" />
        </mxCell>
        <mxCell id="Opo9EoXG69oaY7-Oztma-44" value=".bh exp.bs" style="ellipse;whiteSpace=wrap;html=1;rounded=0;shadow=1;comic=0;labelBackgroundColor=none;strokeWidth=1;fontFamily=Verdana;fontSize=12;align=center;" parent="1" vertex="1">
          <mxGeometry x="560" y="2980" width="75" height="50" as="geometry" />
        </mxCell>
        <mxCell id="Opo9EoXG69oaY7-Oztma-45" value=".bh call_stmt.bs" style="ellipse;whiteSpace=wrap;html=1;rounded=0;shadow=1;comic=0;labelBackgroundColor=none;strokeWidth=1;fontFamily=Verdana;fontSize=12;align=center;" parent="1" vertex="1">
          <mxGeometry x="560" y="3070" width="75" height="50" as="geometry" />
        </mxCell>
        <mxCell id="Opo9EoXG69oaY7-Oztma-46" style="edgeStyle=orthogonalEdgeStyle;rounded=0;orthogonalLoop=1;jettySize=auto;html=1;exitX=0.5;exitY=1;exitDx=0;exitDy=0;" parent="1" source="Opo9EoXG69oaY7-Oztma-47" target="Opo9EoXG69oaY7-Oztma-48" edge="1">
          <mxGeometry relative="1" as="geometry" />
        </mxCell>
        <mxCell id="Opo9EoXG69oaY7-Oztma-69" style="edgeStyle=orthogonalEdgeStyle;rounded=0;orthogonalLoop=1;jettySize=auto;html=1;exitX=0.5;exitY=1;exitDx=0;exitDy=0;" parent="1" source="Opo9EoXG69oaY7-Oztma-47" target="Opo9EoXG69oaY7-Oztma-68" edge="1">
          <mxGeometry relative="1" as="geometry" />
        </mxCell>
        <mxCell id="Opo9EoXG69oaY7-Oztma-47" value=".bh exp.bs" style="ellipse;whiteSpace=wrap;html=1;rounded=0;shadow=1;comic=0;labelBackgroundColor=none;strokeWidth=1;fontFamily=Verdana;fontSize=12;align=center;" parent="1" vertex="1">
          <mxGeometry x="830" y="2980" width="75" height="50" as="geometry" />
        </mxCell>
        <mxCell id="Opo9EoXG69oaY7-Oztma-48" value="KW_NEW" style="ellipse;whiteSpace=wrap;html=1;rounded=0;shadow=1;comic=0;labelBackgroundColor=none;strokeWidth=1;fontFamily=Verdana;fontSize=12;align=center;" parent="1" vertex="1">
          <mxGeometry x="770" y="3070" width="75" height="50" as="geometry" />
        </mxCell>
        <mxCell id="Opo9EoXG69oaY7-Oztma-49" style="edgeStyle=orthogonalEdgeStyle;rounded=0;orthogonalLoop=1;jettySize=auto;html=1;exitX=0.5;exitY=1;exitDx=0;exitDy=0;" parent="1" source="Opo9EoXG69oaY7-Oztma-50" target="Opo9EoXG69oaY7-Oztma-51" edge="1">
          <mxGeometry relative="1" as="geometry" />
        </mxCell>
        <mxCell id="Opo9EoXG69oaY7-Oztma-50" value=".bh exp.bs" style="ellipse;whiteSpace=wrap;html=1;rounded=0;shadow=1;comic=0;labelBackgroundColor=none;strokeWidth=1;fontFamily=Verdana;fontSize=12;align=center;" parent="1" vertex="1">
          <mxGeometry x="1060" y="2980" width="75" height="50" as="geometry" />
        </mxCell>
        <mxCell id="Opo9EoXG69oaY7-Oztma-51" value=".bh var.bs" style="ellipse;whiteSpace=wrap;html=1;rounded=0;shadow=1;comic=0;labelBackgroundColor=none;strokeWidth=1;fontFamily=Verdana;fontSize=12;align=center;" parent="1" vertex="1">
          <mxGeometry x="1060" y="3070" width="75" height="50" as="geometry" />
        </mxCell>
        <mxCell id="Opo9EoXG69oaY7-Oztma-52" style="edgeStyle=orthogonalEdgeStyle;rounded=0;orthogonalLoop=1;jettySize=auto;html=1;exitX=0.5;exitY=1;exitDx=0;exitDy=0;" parent="1" source="Opo9EoXG69oaY7-Oztma-53" target="Opo9EoXG69oaY7-Oztma-54" edge="1">
          <mxGeometry relative="1" as="geometry" />
        </mxCell>
        <mxCell id="Opo9EoXG69oaY7-Oztma-53" value=".bh exp.bs" style="ellipse;whiteSpace=wrap;html=1;rounded=0;shadow=1;comic=0;labelBackgroundColor=none;strokeWidth=1;fontFamily=Verdana;fontSize=12;align=center;" parent="1" vertex="1">
          <mxGeometry x="1260" y="2980" width="75" height="50" as="geometry" />
        </mxCell>
        <mxCell id="Opo9EoXG69oaY7-Oztma-54" value=".bh ref_var.bs" style="ellipse;whiteSpace=wrap;html=1;rounded=0;shadow=1;comic=0;labelBackgroundColor=none;strokeWidth=1;fontFamily=Verdana;fontSize=12;align=center;" parent="1" vertex="1">
          <mxGeometry x="1260" y="3070" width="75" height="50" as="geometry" />
        </mxCell>
        <mxCell id="Opo9EoXG69oaY7-Oztma-55" style="edgeStyle=orthogonalEdgeStyle;rounded=0;orthogonalLoop=1;jettySize=auto;html=1;exitX=0.5;exitY=1;exitDx=0;exitDy=0;" parent="1" source="Opo9EoXG69oaY7-Oztma-56" target="Opo9EoXG69oaY7-Oztma-57" edge="1">
          <mxGeometry relative="1" as="geometry" />
        </mxCell>
        <mxCell id="Opo9EoXG69oaY7-Oztma-56" value=".bh exp.bs" style="ellipse;whiteSpace=wrap;html=1;rounded=0;shadow=1;comic=0;labelBackgroundColor=none;strokeWidth=1;fontFamily=Verdana;fontSize=12;align=center;" parent="1" vertex="1">
          <mxGeometry x="1460" y="2980" width="75" height="50" as="geometry" />
        </mxCell>
        <mxCell id="Opo9EoXG69oaY7-Oztma-57" value=".bh deref_var.bs" style="ellipse;whiteSpace=wrap;html=1;rounded=0;shadow=1;comic=0;labelBackgroundColor=none;strokeWidth=1;fontFamily=Verdana;fontSize=12;align=center;" parent="1" vertex="1">
          <mxGeometry x="1460" y="3070" width="75" height="50" as="geometry" />
        </mxCell>
        <mxCell id="Opo9EoXG69oaY7-Oztma-61" style="edgeStyle=orthogonalEdgeStyle;rounded=0;orthogonalLoop=1;jettySize=auto;html=1;exitX=0.5;exitY=1;exitDx=0;exitDy=0;" parent="1" source="Opo9EoXG69oaY7-Oztma-63" target="Opo9EoXG69oaY7-Oztma-64" edge="1">
          <mxGeometry relative="1" as="geometry" />
        </mxCell>
        <mxCell id="Opo9EoXG69oaY7-Oztma-62" style="edgeStyle=orthogonalEdgeStyle;rounded=0;orthogonalLoop=1;jettySize=auto;html=1;exitX=0.5;exitY=1;exitDx=0;exitDy=0;" parent="1" source="Opo9EoXG69oaY7-Oztma-63" target="Opo9EoXG69oaY7-Oztma-65" edge="1">
          <mxGeometry relative="1" as="geometry" />
        </mxCell>
        <mxCell id="Opo9EoXG69oaY7-Oztma-67" style="edgeStyle=orthogonalEdgeStyle;rounded=0;orthogonalLoop=1;jettySize=auto;html=1;exitX=0.5;exitY=1;exitDx=0;exitDy=0;" parent="1" source="Opo9EoXG69oaY7-Oztma-63" target="Opo9EoXG69oaY7-Oztma-66" edge="1">
          <mxGeometry relative="1" as="geometry" />
        </mxCell>
        <mxCell id="Opo9EoXG69oaY7-Oztma-63" value=".bh exp.bs" style="ellipse;whiteSpace=wrap;html=1;rounded=0;shadow=1;comic=0;labelBackgroundColor=none;strokeWidth=1;fontFamily=Verdana;fontSize=12;align=center;" parent="1" vertex="1">
          <mxGeometry x="1727.5" y="2980" width="75" height="50" as="geometry" />
        </mxCell>
        <mxCell id="Opo9EoXG69oaY7-Oztma-64" value="(" style="ellipse;whiteSpace=wrap;html=1;rounded=0;shadow=1;comic=0;labelBackgroundColor=none;strokeWidth=1;fontFamily=Verdana;fontSize=12;align=center;" parent="1" vertex="1">
          <mxGeometry x="1602.5" y="3070" width="75" height="50" as="geometry" />
        </mxCell>
        <mxCell id="Opo9EoXG69oaY7-Oztma-65" value=".bh exp.bs" style="ellipse;whiteSpace=wrap;html=1;rounded=0;shadow=1;comic=0;labelBackgroundColor=none;strokeWidth=1;fontFamily=Verdana;fontSize=12;align=center;" parent="1" vertex="1">
          <mxGeometry x="1727.5" y="3070" width="75" height="50" as="geometry" />
        </mxCell>
        <mxCell id="Opo9EoXG69oaY7-Oztma-66" value=")" style="ellipse;whiteSpace=wrap;html=1;rounded=0;shadow=1;comic=0;labelBackgroundColor=none;strokeWidth=1;fontFamily=Verdana;fontSize=12;align=center;" parent="1" vertex="1">
          <mxGeometry x="1850" y="3070" width="75" height="50" as="geometry" />
        </mxCell>
        <mxCell id="Opo9EoXG69oaY7-Oztma-68" value="ID.l" style="ellipse;whiteSpace=wrap;html=1;rounded=0;shadow=1;comic=0;labelBackgroundColor=none;strokeWidth=1;fontFamily=Verdana;fontSize=12;align=center;" parent="1" vertex="1">
          <mxGeometry x="885" y="3070" width="75" height="50" as="geometry" />
        </mxCell>
        <mxCell id="Opo9EoXG69oaY7-Oztma-70" value="(AnÃ¡logo para o operador ou &quot;||&quot;)" style="text;html=1;align=center;verticalAlign=middle;resizable=0;points=[];autosize=1;strokeColor=none;fillColor=none;" parent="1" vertex="1">
          <mxGeometry x="388" y="2720" width="200" height="30" as="geometry" />
        </mxCell>
        <mxCell id="Opo9EoXG69oaY7-Oztma-71" value="(AnÃ¡logo para os outros operadores lÃ³gicos)" style="text;html=1;align=center;verticalAlign=middle;resizable=0;points=[];autosize=1;strokeColor=none;fillColor=none;" parent="1" vertex="1">
          <mxGeometry x="945" y="2720" width="260" height="30" as="geometry" />
        </mxCell>
        <mxCell id="Opo9EoXG69oaY7-Oztma-73" value="(AnÃ¡logo para os outros operadores aritmÃ©ticos)" style="text;html=1;align=center;verticalAlign=middle;resizable=0;points=[];autosize=1;strokeColor=none;fillColor=none;" parent="1" vertex="1">
          <mxGeometry x="1310" y="2720" width="280" height="30" as="geometry" />
        </mxCell>
        <mxCell id="ZWpXsxyb9gAAwCvWjB7y-1" value=".bh paramfield_decl_list_semicolumn .bs" style="ellipse;whiteSpace=wrap;html=1;fontFamily=Verdana;" parent="1" vertex="1">
          <mxGeometry x="125" y="3390" width="80" height="50" as="geometry" />
        </mxCell>
        <mxCell id="ZWpXsxyb9gAAwCvWjB7y-4" value="Îµ" style="ellipse;whiteSpace=wrap;html=1;rounded=0;shadow=1;comic=0;labelBackgroundColor=none;strokeWidth=1;fontFamily=Verdana;fontSize=12;align=center;" parent="1" vertex="1">
          <mxGeometry x="380" y="3390" width="75" height="50" as="geometry" />
        </mxCell>
        <mxCell id="ZWpXsxyb9gAAwCvWjB7y-9" value="Îµ" style="ellipse;whiteSpace=wrap;html=1;rounded=0;shadow=1;comic=0;labelBackgroundColor=none;strokeWidth=1;fontFamily=Verdana;fontSize=12;align=center;" parent="1" vertex="1">
          <mxGeometry x="830" y="3380" width="75" height="50" as="geometry" />
        </mxCell>
        <mxCell id="ZWpXsxyb9gAAwCvWjB7y-10" value=".bh paramfield_decl_list_comma .bs" style="ellipse;whiteSpace=wrap;html=1;rounded=0;shadow=1;comic=0;labelBackgroundColor=none;strokeWidth=1;fontFamily=Verdana;fontSize=12;align=center;" parent="1" vertex="1">
          <mxGeometry x="605" y="3380" width="75" height="50" as="geometry" />
        </mxCell>
        <mxCell id="ZWpXsxyb9gAAwCvWjB7y-13" value=".bh paramfield_decl.bs" style="ellipse;whiteSpace=wrap;html=1;rounded=0;shadow=1;comic=0;labelBackgroundColor=none;strokeWidth=1;fontFamily=Verdana;fontSize=12;align=center;" parent="1" vertex="1">
          <mxGeometry x="1060" y="3380" width="75" height="50" as="geometry" />
        </mxCell>
        <mxCell id="ZWpXsxyb9gAAwCvWjB7y-16" style="edgeStyle=orthogonalEdgeStyle;rounded=0;orthogonalLoop=1;jettySize=auto;html=1;" parent="1" source="ZWpXsxyb9gAAwCvWjB7y-15" target="ZWpXsxyb9gAAwCvWjB7y-4" edge="1">
          <mxGeometry relative="1" as="geometry" />
        </mxCell>
        <mxCell id="ZWpXsxyb9gAAwCvWjB7y-15" value=".bh opt_paramfield_decl_list_semicolumn .bs" style="ellipse;whiteSpace=wrap;html=1;rounded=0;shadow=1;comic=0;labelBackgroundColor=none;strokeWidth=1;fontFamily=Verdana;fontSize=12;align=center;" parent="1" vertex="1">
          <mxGeometry x="380" y="3280" width="75" height="50" as="geometry" />
        </mxCell>
        <mxCell id="ZWpXsxyb9gAAwCvWjB7y-18" style="edgeStyle=orthogonalEdgeStyle;rounded=0;orthogonalLoop=1;jettySize=auto;html=1;" parent="1" source="ZWpXsxyb9gAAwCvWjB7y-17" target="ZWpXsxyb9gAAwCvWjB7y-9" edge="1">
          <mxGeometry relative="1" as="geometry" />
        </mxCell>
        <mxCell id="ZWpXsxyb9gAAwCvWjB7y-17" value=".bh opt_paramfield_decl_list_comma .bs" style="ellipse;whiteSpace=wrap;html=1;rounded=0;shadow=1;comic=0;labelBackgroundColor=none;strokeWidth=1;fontFamily=Verdana;fontSize=12;align=center;" parent="1" vertex="1">
          <mxGeometry x="830" y="3280" width="75" height="50" as="geometry" />
        </mxCell>
        <mxCell id="ZWpXsxyb9gAAwCvWjB7y-26" style="edgeStyle=orthogonalEdgeStyle;rounded=0;orthogonalLoop=1;jettySize=auto;html=1;entryX=0.5;entryY=0;entryDx=0;entryDy=0;" parent="1" source="ZWpXsxyb9gAAwCvWjB7y-20" target="ZWpXsxyb9gAAwCvWjB7y-24" edge="1">
          <mxGeometry relative="1" as="geometry">
            <mxPoint x="1422.4999999999995" y="3420" as="targetPoint" />
          </mxGeometry>
        </mxCell>
        <mxCell id="ZWpXsxyb9gAAwCvWjB7y-28" style="edgeStyle=orthogonalEdgeStyle;rounded=0;orthogonalLoop=1;jettySize=auto;html=1;entryX=0.5;entryY=0;entryDx=0;entryDy=0;" parent="1" source="ZWpXsxyb9gAAwCvWjB7y-20" target="ZWpXsxyb9gAAwCvWjB7y-23" edge="1">
          <mxGeometry relative="1" as="geometry" />
        </mxCell>
        <mxCell id="ZWpXsxyb9gAAwCvWjB7y-29" style="edgeStyle=orthogonalEdgeStyle;rounded=0;orthogonalLoop=1;jettySize=auto;html=1;entryX=0.5;entryY=0;entryDx=0;entryDy=0;" parent="1" source="ZWpXsxyb9gAAwCvWjB7y-20" target="ZWpXsxyb9gAAwCvWjB7y-25" edge="1">
          <mxGeometry relative="1" as="geometry" />
        </mxCell>
        <mxCell id="ZWpXsxyb9gAAwCvWjB7y-20" value=".bh paramfield_decl_list_semicolumn.bs" style="ellipse;whiteSpace=wrap;html=1;rounded=0;shadow=1;comic=0;labelBackgroundColor=none;strokeWidth=1;fontFamily=Verdana;fontSize=12;align=center;" parent="1" vertex="1">
          <mxGeometry x="1385" y="3280" width="75" height="50" as="geometry" />
        </mxCell>
        <mxCell id="ZWpXsxyb9gAAwCvWjB7y-23" value=".bh paramfield_decl.bs" style="ellipse;whiteSpace=wrap;html=1;rounded=0;shadow=1;comic=0;labelBackgroundColor=none;strokeWidth=1;fontFamily=Verdana;fontSize=12;align=center;" parent="1" vertex="1">
          <mxGeometry x="1220" y="3430" width="75" height="50" as="geometry" />
        </mxCell>
        <mxCell id="ZWpXsxyb9gAAwCvWjB7y-24" value="KW_SEMICOLUMN" style="ellipse;whiteSpace=wrap;html=1;rounded=0;shadow=1;comic=0;labelBackgroundColor=none;strokeWidth=1;fontFamily=Verdana;fontSize=12;align=center;" parent="1" vertex="1">
          <mxGeometry x="1385" y="3430" width="75" height="50" as="geometry" />
        </mxCell>
        <mxCell id="ZWpXsxyb9gAAwCvWjB7y-25" value=".bh paramfield_decl_list_semicolumn.bs" style="ellipse;whiteSpace=wrap;html=1;rounded=0;shadow=1;comic=0;labelBackgroundColor=none;strokeWidth=1;fontFamily=Verdana;fontSize=12;align=center;" parent="1" vertex="1">
          <mxGeometry x="1560" y="3430" width="75" height="50" as="geometry" />
        </mxCell>
        <mxCell id="ZWpXsxyb9gAAwCvWjB7y-30" value="&lt;font style=&quot;font-size: 15px;&quot;&gt;(anÃ¡logo para o decl comma)&lt;/font&gt;" style="text;html=1;align=center;verticalAlign=middle;whiteSpace=wrap;rounded=0;" parent="1" vertex="1">
          <mxGeometry x="1135" y="3220" width="200" height="40" as="geometry" />
        </mxCell>
        <mxCell id="ZWpXsxyb9gAAwCvWjB7y-32" value="Îµ" style="ellipse;whiteSpace=wrap;html=1;rounded=0;shadow=1;comic=0;labelBackgroundColor=none;strokeWidth=1;fontFamily=Verdana;fontSize=12;align=center;" parent="1" vertex="1">
          <mxGeometry x="125" y="3620" width="75" height="50" as="geometry" />
        </mxCell>
        <mxCell id="ZWpXsxyb9gAAwCvWjB7y-35" style="edgeStyle=orthogonalEdgeStyle;rounded=0;orthogonalLoop=1;jettySize=auto;html=1;entryX=0.5;entryY=0;entryDx=0;entryDy=0;" parent="1" source="ZWpXsxyb9gAAwCvWjB7y-36" target="ZWpXsxyb9gAAwCvWjB7y-37" edge="1">
          <mxGeometry relative="1" as="geometry">
            <mxPoint x="357.5" y="3620" as="targetPoint" />
          </mxGeometry>
        </mxCell>
        <mxCell id="ZWpXsxyb9gAAwCvWjB7y-36" value=".bh opt_stmt_list.bs" style="ellipse;whiteSpace=wrap;html=1;rounded=0;shadow=1;comic=0;labelBackgroundColor=none;strokeWidth=1;fontFamily=Verdana;fontSize=12;align=center;" parent="1" vertex="1">
          <mxGeometry x="320" y="3520" width="75" height="50" as="geometry" />
        </mxCell>
        <mxCell id="ZWpXsxyb9gAAwCvWjB7y-37" value=".bh stmt_list.bs" style="ellipse;whiteSpace=wrap;html=1;rounded=0;shadow=1;comic=0;labelBackgroundColor=none;strokeWidth=1;fontFamily=Verdana;fontSize=12;align=center;" parent="1" vertex="1">
          <mxGeometry x="320" y="3620" width="75" height="50" as="geometry" />
        </mxCell>
        <mxCell id="ZWpXsxyb9gAAwCvWjB7y-38" value=".bh stmt.bs" style="ellipse;whiteSpace=wrap;html=1;rounded=0;shadow=1;comic=0;labelBackgroundColor=none;strokeWidth=1;fontFamily=Verdana;fontSize=12;align=center;" parent="1" vertex="1">
          <mxGeometry x="530" y="3630" width="75" height="50" as="geometry" />
        </mxCell>
        <mxCell id="ZWpXsxyb9gAAwCvWjB7y-40" style="edgeStyle=orthogonalEdgeStyle;rounded=0;orthogonalLoop=1;jettySize=auto;html=1;entryX=0.5;entryY=0;entryDx=0;entryDy=0;" parent="1" source="ZWpXsxyb9gAAwCvWjB7y-41" target="ZWpXsxyb9gAAwCvWjB7y-42" edge="1">
          <mxGeometry relative="1" as="geometry" />
        </mxCell>
        <mxCell id="ZWpXsxyb9gAAwCvWjB7y-44" style="edgeStyle=orthogonalEdgeStyle;rounded=0;orthogonalLoop=1;jettySize=auto;html=1;entryX=0.5;entryY=0;entryDx=0;entryDy=0;" parent="1" source="ZWpXsxyb9gAAwCvWjB7y-41" target="ZWpXsxyb9gAAwCvWjB7y-43" edge="1">
          <mxGeometry relative="1" as="geometry" />
        </mxCell>
        <mxCell id="ZWpXsxyb9gAAwCvWjB7y-46" style="edgeStyle=orthogonalEdgeStyle;rounded=0;orthogonalLoop=1;jettySize=auto;html=1;entryX=0.5;entryY=0;entryDx=0;entryDy=0;" parent="1" source="ZWpXsxyb9gAAwCvWjB7y-41" target="ZWpXsxyb9gAAwCvWjB7y-45" edge="1">
          <mxGeometry relative="1" as="geometry" />
        </mxCell>
        <mxCell id="ZWpXsxyb9gAAwCvWjB7y-41" value=".bh stmt_list.bs" style="ellipse;whiteSpace=wrap;html=1;rounded=0;shadow=1;comic=0;labelBackgroundColor=none;strokeWidth=1;fontFamily=Verdana;fontSize=12;align=center;" parent="1" vertex="1">
          <mxGeometry x="792.5" y="3530" width="75" height="50" as="geometry" />
        </mxCell>
        <mxCell id="ZWpXsxyb9gAAwCvWjB7y-42" value=".bh stmt_list.bs" style="ellipse;whiteSpace=wrap;html=1;rounded=0;shadow=1;comic=0;labelBackgroundColor=none;strokeWidth=1;fontFamily=Verdana;fontSize=12;align=center;" parent="1" vertex="1">
          <mxGeometry x="662.5" y="3630" width="75" height="50" as="geometry" />
        </mxCell>
        <mxCell id="ZWpXsxyb9gAAwCvWjB7y-43" value="KW_SEMICOLUMN" style="ellipse;whiteSpace=wrap;html=1;rounded=0;shadow=1;comic=0;labelBackgroundColor=none;strokeWidth=1;fontFamily=Verdana;fontSize=12;align=center;" parent="1" vertex="1">
          <mxGeometry x="792.5" y="3640" width="75" height="50" as="geometry" />
        </mxCell>
        <mxCell id="ZWpXsxyb9gAAwCvWjB7y-45" value=".bh stmt.bs" style="ellipse;whiteSpace=wrap;html=1;rounded=0;shadow=1;comic=0;labelBackgroundColor=none;strokeWidth=1;fontFamily=Verdana;fontSize=12;align=center;" parent="1" vertex="1">
          <mxGeometry x="920" y="3640" width="75" height="50" as="geometry" />
        </mxCell>
        <mxCell id="ZWpXsxyb9gAAwCvWjB7y-47" value="KW_REF" style="ellipse;whiteSpace=wrap;html=1;rounded=0;shadow=1;comic=0;labelBackgroundColor=none;strokeWidth=1;fontFamily=Verdana;fontSize=12;align=center;" parent="1" vertex="1">
          <mxGeometry x="1100" y="3750" width="75" height="50" as="geometry" />
        </mxCell>
        <mxCell id="ZWpXsxyb9gAAwCvWjB7y-48" value="(" style="ellipse;whiteSpace=wrap;html=1;rounded=0;shadow=1;comic=0;labelBackgroundColor=none;strokeWidth=1;fontFamily=Verdana;fontSize=12;align=center;" parent="1" vertex="1">
          <mxGeometry x="1220" y="3750" width="75" height="50" as="geometry" />
        </mxCell>
        <mxCell id="ZWpXsxyb9gAAwCvWjB7y-49" value=".bh var.bs" style="ellipse;whiteSpace=wrap;html=1;rounded=0;shadow=1;comic=0;labelBackgroundColor=none;strokeWidth=1;fontFamily=Verdana;fontSize=12;align=center;" parent="1" vertex="1">
          <mxGeometry x="1340" y="3750" width="75" height="50" as="geometry" />
        </mxCell>
        <mxCell id="ZWpXsxyb9gAAwCvWjB7y-50" value=")" style="ellipse;whiteSpace=wrap;html=1;rounded=0;shadow=1;comic=0;labelBackgroundColor=none;strokeWidth=1;fontFamily=Verdana;fontSize=12;align=center;" parent="1" vertex="1">
          <mxGeometry x="1470" y="3750" width="75" height="50" as="geometry" />
        </mxCell>
        <mxCell id="ZWpXsxyb9gAAwCvWjB7y-56" style="edgeStyle=orthogonalEdgeStyle;rounded=0;orthogonalLoop=1;jettySize=auto;html=1;" parent="1" source="ZWpXsxyb9gAAwCvWjB7y-60" target="ZWpXsxyb9gAAwCvWjB7y-62" edge="1">
          <mxGeometry relative="1" as="geometry" />
        </mxCell>
        <mxCell id="ZWpXsxyb9gAAwCvWjB7y-57" style="edgeStyle=orthogonalEdgeStyle;rounded=0;orthogonalLoop=1;jettySize=auto;html=1;" parent="1" source="ZWpXsxyb9gAAwCvWjB7y-60" target="ZWpXsxyb9gAAwCvWjB7y-63" edge="1">
          <mxGeometry relative="1" as="geometry" />
        </mxCell>
        <mxCell id="ZWpXsxyb9gAAwCvWjB7y-58" style="edgeStyle=orthogonalEdgeStyle;rounded=0;orthogonalLoop=1;jettySize=auto;html=1;entryX=0.5;entryY=0;entryDx=0;entryDy=0;" parent="1" source="ZWpXsxyb9gAAwCvWjB7y-60" target="ZWpXsxyb9gAAwCvWjB7y-61" edge="1">
          <mxGeometry relative="1" as="geometry" />
        </mxCell>
        <mxCell id="ZWpXsxyb9gAAwCvWjB7y-59" style="edgeStyle=orthogonalEdgeStyle;rounded=0;orthogonalLoop=1;jettySize=auto;html=1;entryX=0.5;entryY=0;entryDx=0;entryDy=0;" parent="1" source="ZWpXsxyb9gAAwCvWjB7y-60" target="ZWpXsxyb9gAAwCvWjB7y-64" edge="1">
          <mxGeometry relative="1" as="geometry" />
        </mxCell>
        <mxCell id="ZWpXsxyb9gAAwCvWjB7y-60" value=".bh deref_var.bs" style="ellipse;whiteSpace=wrap;html=1;rounded=0;shadow=1;comic=0;labelBackgroundColor=none;strokeWidth=1;fontFamily=Verdana;fontSize=12;align=center;" parent="1" vertex="1">
          <mxGeometry x="1900" y="3530" width="75" height="50" as="geometry" />
        </mxCell>
        <mxCell id="ZWpXsxyb9gAAwCvWjB7y-61" value="KW_DEREF" style="ellipse;whiteSpace=wrap;html=1;rounded=0;shadow=1;comic=0;labelBackgroundColor=none;strokeWidth=1;fontFamily=Verdana;fontSize=12;align=center;" parent="1" vertex="1">
          <mxGeometry x="1660" y="3740" width="75" height="50" as="geometry" />
        </mxCell>
        <mxCell id="ZWpXsxyb9gAAwCvWjB7y-62" value="(" style="ellipse;whiteSpace=wrap;html=1;rounded=0;shadow=1;comic=0;labelBackgroundColor=none;strokeWidth=1;fontFamily=Verdana;fontSize=12;align=center;" parent="1" vertex="1">
          <mxGeometry x="1780" y="3740" width="75" height="50" as="geometry" />
        </mxCell>
        <mxCell id="ZWpXsxyb9gAAwCvWjB7y-63" value=".bh var.bs" style="ellipse;whiteSpace=wrap;html=1;rounded=0;shadow=1;comic=0;labelBackgroundColor=none;strokeWidth=1;fontFamily=Verdana;fontSize=12;align=center;" parent="1" vertex="1">
          <mxGeometry x="1900" y="3740" width="75" height="50" as="geometry" />
        </mxCell>
        <mxCell id="ZWpXsxyb9gAAwCvWjB7y-64" value=")" style="ellipse;whiteSpace=wrap;html=1;rounded=0;shadow=1;comic=0;labelBackgroundColor=none;strokeWidth=1;fontFamily=Verdana;fontSize=12;align=center;" parent="1" vertex="1">
          <mxGeometry x="2030" y="3740" width="75" height="50" as="geometry" />
        </mxCell>
        <mxCell id="ZWpXsxyb9gAAwCvWjB7y-65" style="edgeStyle=orthogonalEdgeStyle;rounded=0;orthogonalLoop=1;jettySize=auto;html=1;" parent="1" source="ZWpXsxyb9gAAwCvWjB7y-69" target="ZWpXsxyb9gAAwCvWjB7y-71" edge="1">
          <mxGeometry relative="1" as="geometry" />
        </mxCell>
        <mxCell id="ZWpXsxyb9gAAwCvWjB7y-66" style="edgeStyle=orthogonalEdgeStyle;rounded=0;orthogonalLoop=1;jettySize=auto;html=1;" parent="1" source="ZWpXsxyb9gAAwCvWjB7y-69" target="ZWpXsxyb9gAAwCvWjB7y-72" edge="1">
          <mxGeometry relative="1" as="geometry" />
        </mxCell>
        <mxCell id="ZWpXsxyb9gAAwCvWjB7y-67" style="edgeStyle=orthogonalEdgeStyle;rounded=0;orthogonalLoop=1;jettySize=auto;html=1;entryX=0.5;entryY=0;entryDx=0;entryDy=0;" parent="1" source="ZWpXsxyb9gAAwCvWjB7y-69" target="ZWpXsxyb9gAAwCvWjB7y-70" edge="1">
          <mxGeometry relative="1" as="geometry" />
        </mxCell>
        <mxCell id="ZWpXsxyb9gAAwCvWjB7y-68" style="edgeStyle=orthogonalEdgeStyle;rounded=0;orthogonalLoop=1;jettySize=auto;html=1;entryX=0.5;entryY=0;entryDx=0;entryDy=0;" parent="1" source="ZWpXsxyb9gAAwCvWjB7y-69" target="ZWpXsxyb9gAAwCvWjB7y-73" edge="1">
          <mxGeometry relative="1" as="geometry" />
        </mxCell>
        <mxCell id="ZWpXsxyb9gAAwCvWjB7y-69" value=".bh deref_var.bs" style="ellipse;whiteSpace=wrap;html=1;rounded=0;shadow=1;comic=0;labelBackgroundColor=none;strokeWidth=1;fontFamily=Verdana;fontSize=12;align=center;" parent="1" vertex="1">
          <mxGeometry x="2075" y="3210" width="75" height="50" as="geometry" />
        </mxCell>
        <mxCell id="ZWpXsxyb9gAAwCvWjB7y-70" value="KW_DEREF" style="ellipse;whiteSpace=wrap;html=1;rounded=0;shadow=1;comic=0;labelBackgroundColor=none;strokeWidth=1;fontFamily=Verdana;fontSize=12;align=center;" parent="1" vertex="1">
          <mxGeometry x="1835" y="3420" width="75" height="50" as="geometry" />
        </mxCell>
        <mxCell id="ZWpXsxyb9gAAwCvWjB7y-71" value="(" style="ellipse;whiteSpace=wrap;html=1;rounded=0;shadow=1;comic=0;labelBackgroundColor=none;strokeWidth=1;fontFamily=Verdana;fontSize=12;align=center;" parent="1" vertex="1">
          <mxGeometry x="1955" y="3420" width="75" height="50" as="geometry" />
        </mxCell>
        <mxCell id="ZWpXsxyb9gAAwCvWjB7y-72" value=".bh deref_var.bs" style="ellipse;whiteSpace=wrap;html=1;rounded=0;shadow=1;comic=0;labelBackgroundColor=none;strokeWidth=1;fontFamily=Verdana;fontSize=12;align=center;" parent="1" vertex="1">
          <mxGeometry x="2075" y="3420" width="75" height="50" as="geometry" />
        </mxCell>
        <mxCell id="ZWpXsxyb9gAAwCvWjB7y-73" value=")" style="ellipse;whiteSpace=wrap;html=1;rounded=0;shadow=1;comic=0;labelBackgroundColor=none;strokeWidth=1;fontFamily=Verdana;fontSize=12;align=center;" parent="1" vertex="1">
          <mxGeometry x="2205" y="3420" width="75" height="50" as="geometry" />
        </mxCell>
        <mxCell id="ZWpXsxyb9gAAwCvWjB7y-74" value="ID.l" style="ellipse;whiteSpace=wrap;html=1;rounded=0;shadow=1;comic=0;labelBackgroundColor=none;strokeWidth=1;fontFamily=Verdana;fontSize=12;align=center;" parent="1" vertex="1">
          <mxGeometry x="52.5" y="3920" width="75" height="50" as="geometry" />
        </mxCell>
        <mxCell id="ZWpXsxyb9gAAwCvWjB7y-75" value=".bh exp.bs" style="ellipse;whiteSpace=wrap;html=1;rounded=0;shadow=1;comic=0;labelBackgroundColor=none;strokeWidth=1;fontFamily=Verdana;fontSize=12;align=center;" parent="1" vertex="1">
          <mxGeometry x="170" y="3920" width="75" height="50" as="geometry" />
        </mxCell>
        <mxCell id="ZWpXsxyb9gAAwCvWjB7y-76" value="KW_DOT" style="ellipse;whiteSpace=wrap;html=1;rounded=0;shadow=1;comic=0;labelBackgroundColor=none;strokeWidth=1;fontFamily=Verdana;fontSize=12;align=center;" parent="1" vertex="1">
          <mxGeometry x="292.5" y="3920" width="75" height="50" as="geometry" />
        </mxCell>
        <mxCell id="ZWpXsxyb9gAAwCvWjB7y-77" value="ID.l" style="ellipse;whiteSpace=wrap;html=1;rounded=0;shadow=1;comic=0;labelBackgroundColor=none;strokeWidth=1;fontFamily=Verdana;fontSize=12;align=center;" parent="1" vertex="1">
          <mxGeometry x="415" y="3920" width="75" height="50" as="geometry" />
        </mxCell>
        <mxCell id="ZWpXsxyb9gAAwCvWjB7y-80" style="edgeStyle=orthogonalEdgeStyle;rounded=0;orthogonalLoop=1;jettySize=auto;html=1;" parent="1" source="ZWpXsxyb9gAAwCvWjB7y-79" target="ZWpXsxyb9gAAwCvWjB7y-76" edge="1">
          <mxGeometry relative="1" as="geometry" />
        </mxCell>
        <mxCell id="ZWpXsxyb9gAAwCvWjB7y-81" style="edgeStyle=orthogonalEdgeStyle;rounded=0;orthogonalLoop=1;jettySize=auto;html=1;entryX=0.5;entryY=0;entryDx=0;entryDy=0;" parent="1" source="ZWpXsxyb9gAAwCvWjB7y-79" target="ZWpXsxyb9gAAwCvWjB7y-75" edge="1">
          <mxGeometry relative="1" as="geometry" />
        </mxCell>
        <mxCell id="ZWpXsxyb9gAAwCvWjB7y-82" style="edgeStyle=orthogonalEdgeStyle;rounded=0;orthogonalLoop=1;jettySize=auto;html=1;entryX=0.5;entryY=0;entryDx=0;entryDy=0;" parent="1" source="ZWpXsxyb9gAAwCvWjB7y-79" target="ZWpXsxyb9gAAwCvWjB7y-77" edge="1">
          <mxGeometry relative="1" as="geometry" />
        </mxCell>
        <mxCell id="ZWpXsxyb9gAAwCvWjB7y-79" value=".bh var.bs" style="ellipse;whiteSpace=wrap;html=1;rounded=0;shadow=1;comic=0;labelBackgroundColor=none;strokeWidth=1;fontFamily=Verdana;fontSize=12;align=center;" parent="1" vertex="1">
          <mxGeometry x="292.5" y="3790" width="75" height="50" as="geometry" />
        </mxCell>
        <mxCell id="ZWpXsxyb9gAAwCvWjB7y-83" value=".bh assign_stmt.bs" style="ellipse;whiteSpace=wrap;html=1;rounded=0;shadow=1;comic=0;labelBackgroundColor=none;strokeWidth=1;fontFamily=Verdana;fontSize=12;align=center;" parent="1" vertex="1">
          <mxGeometry x="610" y="3910" width="75" height="50" as="geometry" />
        </mxCell>
        <mxCell id="ZWpXsxyb9gAAwCvWjB7y-85" style="edgeStyle=orthogonalEdgeStyle;rounded=0;orthogonalLoop=1;jettySize=auto;html=1;" parent="1" source="ZWpXsxyb9gAAwCvWjB7y-86" target="ZWpXsxyb9gAAwCvWjB7y-87" edge="1">
          <mxGeometry relative="1" as="geometry">
            <mxPoint x="822.5" y="3990" as="targetPoint" />
          </mxGeometry>
        </mxCell>
        <mxCell id="ZWpXsxyb9gAAwCvWjB7y-86" value=".bh stmt.bs" style="ellipse;whiteSpace=wrap;html=1;rounded=0;shadow=1;comic=0;labelBackgroundColor=none;strokeWidth=1;fontFamily=Verdana;fontSize=12;align=center;" parent="1" vertex="1">
          <mxGeometry x="760" y="3800" width="75" height="50" as="geometry" />
        </mxCell>
        <mxCell id="ZWpXsxyb9gAAwCvWjB7y-87" value=".bh if_stmt.bs" style="ellipse;whiteSpace=wrap;html=1;rounded=0;shadow=1;comic=0;labelBackgroundColor=none;strokeWidth=1;fontFamily=Verdana;fontSize=12;align=center;" parent="1" vertex="1">
          <mxGeometry x="760" y="3920" width="75" height="50" as="geometry" />
        </mxCell>
        <mxCell id="ZWpXsxyb9gAAwCvWjB7y-88" style="edgeStyle=orthogonalEdgeStyle;rounded=0;orthogonalLoop=1;jettySize=auto;html=1;" parent="1" source="ZWpXsxyb9gAAwCvWjB7y-89" target="ZWpXsxyb9gAAwCvWjB7y-90" edge="1">
          <mxGeometry relative="1" as="geometry">
            <mxPoint x="962.5" y="3930" as="targetPoint" />
          </mxGeometry>
        </mxCell>
        <mxCell id="ZWpXsxyb9gAAwCvWjB7y-89" value=".bh stmt.bs" style="ellipse;whiteSpace=wrap;html=1;rounded=0;shadow=1;comic=0;labelBackgroundColor=none;strokeWidth=1;fontFamily=Verdana;fontSize=12;align=center;" parent="1" vertex="1">
          <mxGeometry x="925" y="3810" width="75" height="50" as="geometry" />
        </mxCell>
        <mxCell id="ZWpXsxyb9gAAwCvWjB7y-90" value=".bh&lt;div&gt;while_stmt.bs&lt;/div&gt;" style="ellipse;whiteSpace=wrap;html=1;rounded=0;shadow=1;comic=0;labelBackgroundColor=none;strokeWidth=1;fontFamily=Verdana;fontSize=12;align=center;" parent="1" vertex="1">
          <mxGeometry x="925" y="3920" width="75" height="50" as="geometry" />
        </mxCell>
        <mxCell id="ZWpXsxyb9gAAwCvWjB7y-91" style="edgeStyle=orthogonalEdgeStyle;rounded=0;orthogonalLoop=1;jettySize=auto;html=1;" parent="1" source="ZWpXsxyb9gAAwCvWjB7y-92" target="ZWpXsxyb9gAAwCvWjB7y-93" edge="1">
          <mxGeometry relative="1" as="geometry">
            <mxPoint x="642.5" y="4150" as="targetPoint" />
          </mxGeometry>
        </mxCell>
        <mxCell id="ZWpXsxyb9gAAwCvWjB7y-92" value=".bh stmt.bs" style="ellipse;whiteSpace=wrap;html=1;rounded=0;shadow=1;comic=0;labelBackgroundColor=none;strokeWidth=1;fontFamily=Verdana;fontSize=12;align=center;" parent="1" vertex="1">
          <mxGeometry x="605" y="4030" width="75" height="50" as="geometry" />
        </mxCell>
        <mxCell id="ZWpXsxyb9gAAwCvWjB7y-93" value=".bh return_stmt.bs" style="ellipse;whiteSpace=wrap;html=1;rounded=0;shadow=1;comic=0;labelBackgroundColor=none;strokeWidth=1;fontFamily=Verdana;fontSize=12;align=center;" parent="1" vertex="1">
          <mxGeometry x="605" y="4140" width="75" height="50" as="geometry" />
        </mxCell>
        <mxCell id="ZWpXsxyb9gAAwCvWjB7y-94" style="edgeStyle=orthogonalEdgeStyle;rounded=0;orthogonalLoop=1;jettySize=auto;html=1;" parent="1" source="ZWpXsxyb9gAAwCvWjB7y-95" target="ZWpXsxyb9gAAwCvWjB7y-96" edge="1">
          <mxGeometry relative="1" as="geometry">
            <mxPoint x="822.5" y="4150" as="targetPoint" />
          </mxGeometry>
        </mxCell>
        <mxCell id="ZWpXsxyb9gAAwCvWjB7y-95" value=".bh stmt.bs" style="ellipse;whiteSpace=wrap;html=1;rounded=0;shadow=1;comic=0;labelBackgroundColor=none;strokeWidth=1;fontFamily=Verdana;fontSize=12;align=center;" parent="1" vertex="1">
          <mxGeometry x="785" y="4030" width="75" height="50" as="geometry" />
        </mxCell>
        <mxCell id="ZWpXsxyb9gAAwCvWjB7y-96" value=".bh call_stmt.bs" style="ellipse;whiteSpace=wrap;html=1;rounded=0;shadow=1;comic=0;labelBackgroundColor=none;strokeWidth=1;fontFamily=Verdana;fontSize=12;align=center;" parent="1" vertex="1">
          <mxGeometry x="785" y="4140" width="75" height="50" as="geometry" />
        </mxCell>
        <mxCell id="ZWpXsxyb9gAAwCvWjB7y-97" style="edgeStyle=orthogonalEdgeStyle;rounded=0;orthogonalLoop=1;jettySize=auto;html=1;" parent="1" source="ZWpXsxyb9gAAwCvWjB7y-98" target="ZWpXsxyb9gAAwCvWjB7y-99" edge="1">
          <mxGeometry relative="1" as="geometry">
            <mxPoint x="982.5" y="4150" as="targetPoint" />
          </mxGeometry>
        </mxCell>
        <mxCell id="ZWpXsxyb9gAAwCvWjB7y-98" value=".bh stmt.bs" style="ellipse;whiteSpace=wrap;html=1;rounded=0;shadow=1;comic=0;labelBackgroundColor=none;strokeWidth=1;fontFamily=Verdana;fontSize=12;align=center;" parent="1" vertex="1">
          <mxGeometry x="945" y="4030" width="75" height="50" as="geometry" />
        </mxCell>
        <mxCell id="ZWpXsxyb9gAAwCvWjB7y-99" value=".bh do_while_stmt.bs" style="ellipse;whiteSpace=wrap;html=1;rounded=0;shadow=1;comic=0;labelBackgroundColor=none;strokeWidth=1;fontFamily=Verdana;fontSize=12;align=center;" parent="1" vertex="1">
          <mxGeometry x="945" y="4140" width="75" height="50" as="geometry" />
        </mxCell>
        <mxCell id="ZWpXsxyb9gAAwCvWjB7y-100" value=".bh var.bs" style="ellipse;whiteSpace=wrap;html=1;rounded=0;shadow=1;comic=0;labelBackgroundColor=none;strokeWidth=1;fontFamily=Verdana;fontSize=12;align=center;" parent="1" vertex="1">
          <mxGeometry x="1145" y="4040" width="75" height="50" as="geometry" />
        </mxCell>
        <mxCell id="ZWpXsxyb9gAAwCvWjB7y-101" value="OP_ASSIGN" style="ellipse;whiteSpace=wrap;html=1;rounded=0;shadow=1;comic=0;labelBackgroundColor=none;strokeWidth=1;fontFamily=Verdana;fontSize=12;align=center;" parent="1" vertex="1">
          <mxGeometry x="1280" y="4040" width="75" height="50" as="geometry" />
        </mxCell>
        <mxCell id="ZWpXsxyb9gAAwCvWjB7y-102" value=".bh exp.bs" style="ellipse;whiteSpace=wrap;html=1;rounded=0;shadow=1;comic=0;labelBackgroundColor=none;strokeWidth=1;fontFamily=Verdana;fontSize=12;align=center;" parent="1" vertex="1">
          <mxGeometry x="1400" y="4040" width="75" height="50" as="geometry" />
        </mxCell>
        <mxCell id="ZWpXsxyb9gAAwCvWjB7y-106" style="edgeStyle=orthogonalEdgeStyle;rounded=0;orthogonalLoop=1;jettySize=auto;html=1;" parent="1" source="ZWpXsxyb9gAAwCvWjB7y-109" target="ZWpXsxyb9gAAwCvWjB7y-111" edge="1">
          <mxGeometry relative="1" as="geometry" />
        </mxCell>
        <mxCell id="ZWpXsxyb9gAAwCvWjB7y-107" style="edgeStyle=orthogonalEdgeStyle;rounded=0;orthogonalLoop=1;jettySize=auto;html=1;entryX=0.5;entryY=0;entryDx=0;entryDy=0;" parent="1" source="ZWpXsxyb9gAAwCvWjB7y-109" target="ZWpXsxyb9gAAwCvWjB7y-110" edge="1">
          <mxGeometry relative="1" as="geometry" />
        </mxCell>
        <mxCell id="ZWpXsxyb9gAAwCvWjB7y-108" style="edgeStyle=orthogonalEdgeStyle;rounded=0;orthogonalLoop=1;jettySize=auto;html=1;entryX=0.5;entryY=0;entryDx=0;entryDy=0;" parent="1" source="ZWpXsxyb9gAAwCvWjB7y-109" target="ZWpXsxyb9gAAwCvWjB7y-112" edge="1">
          <mxGeometry relative="1" as="geometry" />
        </mxCell>
        <mxCell id="ZWpXsxyb9gAAwCvWjB7y-109" value=".bh assign_stmt.bs" style="ellipse;whiteSpace=wrap;html=1;rounded=0;shadow=1;comic=0;labelBackgroundColor=none;strokeWidth=1;fontFamily=Verdana;fontSize=12;align=center;" parent="1" vertex="1">
          <mxGeometry x="1705" y="3920" width="75" height="50" as="geometry" />
        </mxCell>
        <mxCell id="ZWpXsxyb9gAAwCvWjB7y-110" value=".bh deref_var.bs" style="ellipse;whiteSpace=wrap;html=1;rounded=0;shadow=1;comic=0;labelBackgroundColor=none;strokeWidth=1;fontFamily=Verdana;fontSize=12;align=center;" parent="1" vertex="1">
          <mxGeometry x="1570" y="4040" width="75" height="50" as="geometry" />
        </mxCell>
        <mxCell id="ZWpXsxyb9gAAwCvWjB7y-111" value="OP_ASSIGN" style="ellipse;whiteSpace=wrap;html=1;rounded=0;shadow=1;comic=0;labelBackgroundColor=none;strokeWidth=1;fontFamily=Verdana;fontSize=12;align=center;" parent="1" vertex="1">
          <mxGeometry x="1705" y="4040" width="75" height="50" as="geometry" />
        </mxCell>
        <mxCell id="ZWpXsxyb9gAAwCvWjB7y-112" value=".bh exp.bs" style="ellipse;whiteSpace=wrap;html=1;rounded=0;shadow=1;comic=0;labelBackgroundColor=none;strokeWidth=1;fontFamily=Verdana;fontSize=12;align=center;" parent="1" vertex="1">
          <mxGeometry x="1825" y="4040" width="75" height="50" as="geometry" />
        </mxCell>
        <mxCell id="ZWpXsxyb9gAAwCvWjB7y-113" value=".bh exp.bs" style="ellipse;whiteSpace=wrap;html=1;rounded=0;shadow=1;comic=0;labelBackgroundColor=none;strokeWidth=1;fontFamily=Verdana;fontSize=12;align=center;" parent="1" vertex="1">
          <mxGeometry x="90" y="4200" width="75" height="50" as="geometry" />
        </mxCell>
        <mxCell id="ZWpXsxyb9gAAwCvWjB7y-115" style="edgeStyle=orthogonalEdgeStyle;rounded=0;orthogonalLoop=1;jettySize=auto;html=1;" parent="1" source="ZWpXsxyb9gAAwCvWjB7y-116" target="ZWpXsxyb9gAAwCvWjB7y-117" edge="1">
          <mxGeometry relative="1" as="geometry" />
        </mxCell>
        <mxCell id="ZWpXsxyb9gAAwCvWjB7y-119" style="edgeStyle=orthogonalEdgeStyle;rounded=0;orthogonalLoop=1;jettySize=auto;html=1;" parent="1" source="ZWpXsxyb9gAAwCvWjB7y-116" target="ZWpXsxyb9gAAwCvWjB7y-118" edge="1">
          <mxGeometry relative="1" as="geometry" />
        </mxCell>
        <mxCell id="ZWpXsxyb9gAAwCvWjB7y-121" style="edgeStyle=orthogonalEdgeStyle;rounded=0;orthogonalLoop=1;jettySize=auto;html=1;" parent="1" source="ZWpXsxyb9gAAwCvWjB7y-116" target="ZWpXsxyb9gAAwCvWjB7y-120" edge="1">
          <mxGeometry relative="1" as="geometry" />
        </mxCell>
        <mxCell id="ZWpXsxyb9gAAwCvWjB7y-116" value=".bh exp_list.bs" style="ellipse;whiteSpace=wrap;html=1;rounded=0;shadow=1;comic=0;labelBackgroundColor=none;strokeWidth=1;fontFamily=Verdana;fontSize=12;align=center;" parent="1" vertex="1">
          <mxGeometry x="320" y="4070" width="75" height="50" as="geometry" />
        </mxCell>
        <mxCell id="ZWpXsxyb9gAAwCvWjB7y-117" value=".bh exp.bs" style="ellipse;whiteSpace=wrap;html=1;rounded=0;shadow=1;comic=0;labelBackgroundColor=none;strokeWidth=1;fontFamily=Verdana;fontSize=12;align=center;" parent="1" vertex="1">
          <mxGeometry x="440" y="4200" width="75" height="50" as="geometry" />
        </mxCell>
        <mxCell id="ZWpXsxyb9gAAwCvWjB7y-118" value=".bh exp_list.bs" style="ellipse;whiteSpace=wrap;html=1;rounded=0;shadow=1;comic=0;labelBackgroundColor=none;strokeWidth=1;fontFamily=Verdana;fontSize=12;align=center;" parent="1" vertex="1">
          <mxGeometry x="220" y="4200" width="75" height="50" as="geometry" />
        </mxCell>
        <mxCell id="ZWpXsxyb9gAAwCvWjB7y-120" value="KW_COMMA" style="ellipse;whiteSpace=wrap;html=1;rounded=0;shadow=1;comic=0;labelBackgroundColor=none;strokeWidth=1;fontFamily=Verdana;fontSize=12;align=center;" parent="1" vertex="1">
          <mxGeometry x="320" y="4200" width="75" height="50" as="geometry" />
        </mxCell>
        <mxCell id="ZWpXsxyb9gAAwCvWjB7y-122" value=".bh exp_list.bs" style="ellipse;whiteSpace=wrap;html=1;rounded=0;shadow=1;comic=0;labelBackgroundColor=none;strokeWidth=1;fontFamily=Verdana;fontSize=12;align=center;" parent="1" vertex="1">
          <mxGeometry x="267.5" y="4450" width="75" height="50" as="geometry" />
        </mxCell>
        <mxCell id="ZWpXsxyb9gAAwCvWjB7y-124" style="edgeStyle=orthogonalEdgeStyle;rounded=0;orthogonalLoop=1;jettySize=auto;html=1;" parent="1" source="ZWpXsxyb9gAAwCvWjB7y-125" target="ZWpXsxyb9gAAwCvWjB7y-126" edge="1">
          <mxGeometry relative="1" as="geometry" />
        </mxCell>
        <mxCell id="ZWpXsxyb9gAAwCvWjB7y-125" value=".bh opt_exp_list.bs" style="ellipse;whiteSpace=wrap;html=1;rounded=0;shadow=1;comic=0;labelBackgroundColor=none;strokeWidth=1;fontFamily=Verdana;fontSize=12;align=center;" parent="1" vertex="1">
          <mxGeometry x="90" y="4290" width="75" height="50" as="geometry" />
        </mxCell>
        <mxCell id="ZWpXsxyb9gAAwCvWjB7y-126" value="Îµ" style="ellipse;whiteSpace=wrap;html=1;rounded=0;shadow=1;comic=0;labelBackgroundColor=none;strokeWidth=1;fontFamily=Verdana;fontSize=12;align=center;" parent="1" vertex="1">
          <mxGeometry x="90" y="4450" width="75" height="50" as="geometry" />
        </mxCell>
        <mxCell id="ZWpXsxyb9gAAwCvWjB7y-127" value=".bh exp.bs" style="ellipse;whiteSpace=wrap;html=1;rounded=0;shadow=1;comic=0;labelBackgroundColor=none;strokeWidth=1;fontFamily=Verdana;fontSize=12;align=center;" parent="1" vertex="1">
          <mxGeometry x="570" y="4440" width="75" height="50" as="geometry" />
        </mxCell>
        <mxCell id="ZWpXsxyb9gAAwCvWjB7y-128" value="KW_IF" style="ellipse;whiteSpace=wrap;html=1;rounded=0;shadow=1;comic=0;labelBackgroundColor=none;strokeWidth=1;fontFamily=Verdana;fontSize=12;align=center;" parent="1" vertex="1">
          <mxGeometry x="455" y="4440" width="75" height="50" as="geometry" />
        </mxCell>
        <mxCell id="ZWpXsxyb9gAAwCvWjB7y-129" value="KW_FI" style="ellipse;whiteSpace=wrap;html=1;rounded=0;shadow=1;comic=0;labelBackgroundColor=none;strokeWidth=1;fontFamily=Verdana;fontSize=12;align=center;" parent="1" vertex="1">
          <mxGeometry x="1080" y="4440" width="75" height="50" as="geometry" />
        </mxCell>
        <mxCell id="ZWpXsxyb9gAAwCvWjB7y-130" value="KW_THEN" style="ellipse;whiteSpace=wrap;html=1;rounded=0;shadow=1;comic=0;labelBackgroundColor=none;strokeWidth=1;fontFamily=Verdana;fontSize=12;align=center;" parent="1" vertex="1">
          <mxGeometry x="700" y="4440" width="75" height="50" as="geometry" />
        </mxCell>
        <mxCell id="ZWpXsxyb9gAAwCvWjB7y-131" value=".bh opt_stmt_list.bs" style="ellipse;whiteSpace=wrap;html=1;rounded=0;shadow=1;comic=0;labelBackgroundColor=none;strokeWidth=1;fontFamily=Verdana;fontSize=12;align=center;" parent="1" vertex="1">
          <mxGeometry x="830" y="4440" width="75" height="50" as="geometry" />
        </mxCell>
        <mxCell id="ZWpXsxyb9gAAwCvWjB7y-132" value=".bh opt_else_stmt.bs" style="ellipse;whiteSpace=wrap;html=1;rounded=0;shadow=1;comic=0;labelBackgroundColor=none;strokeWidth=1;fontFamily=Verdana;fontSize=12;align=center;" parent="1" vertex="1">
          <mxGeometry x="960" y="4440" width="75" height="50" as="geometry" />
        </mxCell>
        <mxCell id="ZWpXsxyb9gAAwCvWjB7y-141" value="KW_RETURN" style="ellipse;whiteSpace=wrap;html=1;rounded=0;shadow=1;comic=0;labelBackgroundColor=none;strokeWidth=1;fontFamily=Verdana;fontSize=12;align=center;" parent="1" vertex="1">
          <mxGeometry x="1255" y="4410" width="75" height="50" as="geometry" />
        </mxCell>
        <mxCell id="ZWpXsxyb9gAAwCvWjB7y-142" value=".bh exp.bs" style="ellipse;whiteSpace=wrap;html=1;rounded=0;shadow=1;comic=0;labelBackgroundColor=none;strokeWidth=1;fontFamily=Verdana;fontSize=12;align=center;" parent="1" vertex="1">
          <mxGeometry x="1360" y="4410" width="75" height="50" as="geometry" />
        </mxCell>
        <mxCell id="ZWpXsxyb9gAAwCvWjB7y-145" value="ID.l" style="ellipse;whiteSpace=wrap;html=1;rounded=0;shadow=1;comic=0;labelBackgroundColor=none;strokeWidth=1;fontFamily=Verdana;fontSize=12;align=center;" parent="1" vertex="1">
          <mxGeometry x="1527.5" y="4410" width="75" height="50" as="geometry" />
        </mxCell>
        <mxCell id="ZWpXsxyb9gAAwCvWjB7y-146" value="(" style="ellipse;whiteSpace=wrap;html=1;rounded=0;shadow=1;comic=0;labelBackgroundColor=none;strokeWidth=1;fontFamily=Verdana;fontSize=12;align=center;" parent="1" vertex="1">
          <mxGeometry x="1635" y="4410" width="75" height="50" as="geometry" />
        </mxCell>
        <mxCell id="ZWpXsxyb9gAAwCvWjB7y-147" value=".bh opt_exp_list.bs" style="ellipse;whiteSpace=wrap;html=1;rounded=0;shadow=1;comic=0;labelBackgroundColor=none;strokeWidth=1;fontFamily=Verdana;fontSize=12;align=center;" parent="1" vertex="1">
          <mxGeometry x="1750" y="4410" width="75" height="50" as="geometry" />
        </mxCell>
        <mxCell id="ZWpXsxyb9gAAwCvWjB7y-148" value=")" style="ellipse;whiteSpace=wrap;html=1;rounded=0;shadow=1;comic=0;labelBackgroundColor=none;strokeWidth=1;fontFamily=Verdana;fontSize=12;align=center;" parent="1" vertex="1">
          <mxGeometry x="1870" y="4410" width="75" height="50" as="geometry" />
        </mxCell>
        <mxCell id="ZWpXsxyb9gAAwCvWjB7y-153" value=".bh exp.bs" style="ellipse;whiteSpace=wrap;html=1;rounded=0;shadow=1;comic=0;labelBackgroundColor=none;strokeWidth=1;fontFamily=Verdana;fontSize=12;align=center;" parent="1" vertex="1">
          <mxGeometry x="537.5" y="4830" width="75" height="50" as="geometry" />
        </mxCell>
        <mxCell id="ZWpXsxyb9gAAwCvWjB7y-154" value="KW_WHILE" style="ellipse;whiteSpace=wrap;html=1;rounded=0;shadow=1;comic=0;labelBackgroundColor=none;strokeWidth=1;fontFamily=Verdana;fontSize=12;align=center;" parent="1" vertex="1">
          <mxGeometry x="435" y="4830" width="75" height="50" as="geometry" />
        </mxCell>
        <mxCell id="ZWpXsxyb9gAAwCvWjB7y-155" value="KW_DO" style="ellipse;whiteSpace=wrap;html=1;rounded=0;shadow=1;comic=0;labelBackgroundColor=none;strokeWidth=1;fontFamily=Verdana;fontSize=12;align=center;" parent="1" vertex="1">
          <mxGeometry x="645" y="4830" width="75" height="50" as="geometry" />
        </mxCell>
        <mxCell id="ZWpXsxyb9gAAwCvWjB7y-156" value=".bh opt_stmt_list.bs" style="ellipse;whiteSpace=wrap;html=1;rounded=0;shadow=1;comic=0;labelBackgroundColor=none;strokeWidth=1;fontFamily=Verdana;fontSize=12;align=center;" parent="1" vertex="1">
          <mxGeometry x="755" y="4830" width="75" height="50" as="geometry" />
        </mxCell>
        <mxCell id="ZWpXsxyb9gAAwCvWjB7y-157" value="KW_OD" style="ellipse;whiteSpace=wrap;html=1;rounded=0;shadow=1;comic=0;labelBackgroundColor=none;strokeWidth=1;fontFamily=Verdana;fontSize=12;align=center;" parent="1" vertex="1">
          <mxGeometry x="867.5" y="4830" width="75" height="50" as="geometry" />
        </mxCell>
        <mxCell id="aZb8TKHirXO-cwNSeTYz-91" style="edgeStyle=orthogonalEdgeStyle;rounded=0;orthogonalLoop=1;jettySize=auto;html=1;exitX=0.5;exitY=1;exitDx=0;exitDy=0;" edge="1" parent="1" source="aZb8TKHirXO-cwNSeTYz-92" target="aZb8TKHirXO-cwNSeTYz-104">
          <mxGeometry relative="1" as="geometry" />
        </mxCell>
        <mxCell id="aZb8TKHirXO-cwNSeTYz-92" value="do_while_opt_stmt_list" style="ellipse;whiteSpace=wrap;html=1;rounded=0;shadow=1;comic=0;labelBackgroundColor=none;strokeWidth=1;fontFamily=Verdana;fontSize=12;align=center;" vertex="1" parent="1">
          <mxGeometry x="442.5" y="5481.710761198923" width="131.78509454949946" height="87.85640858310909" as="geometry" />
        </mxCell>
        <mxCell id="aZb8TKHirXO-cwNSeTYz-93" style="edgeStyle=orthogonalEdgeStyle;rounded=0;orthogonalLoop=1;jettySize=auto;html=1;exitX=0.5;exitY=1;exitDx=0;exitDy=0;" edge="1" parent="1" source="aZb8TKHirXO-cwNSeTYz-96" target="aZb8TKHirXO-cwNSeTYz-102">
          <mxGeometry relative="1" as="geometry" />
        </mxCell>
        <mxCell id="aZb8TKHirXO-cwNSeTYz-94" style="edgeStyle=orthogonalEdgeStyle;rounded=0;orthogonalLoop=1;jettySize=auto;html=1;exitX=0.5;exitY=1;exitDx=0;exitDy=0;" edge="1" parent="1" source="aZb8TKHirXO-cwNSeTYz-96" target="aZb8TKHirXO-cwNSeTYz-101">
          <mxGeometry relative="1" as="geometry" />
        </mxCell>
        <mxCell id="aZb8TKHirXO-cwNSeTYz-95" style="edgeStyle=orthogonalEdgeStyle;rounded=0;orthogonalLoop=1;jettySize=auto;html=1;exitX=0.5;exitY=1;exitDx=0;exitDy=0;" edge="1" parent="1" source="aZb8TKHirXO-cwNSeTYz-96" target="aZb8TKHirXO-cwNSeTYz-103">
          <mxGeometry relative="1" as="geometry" />
        </mxCell>
        <mxCell id="aZb8TKHirXO-cwNSeTYz-96" value="do_while_stmt" style="ellipse;whiteSpace=wrap;html=1;rounded=0;shadow=1;comic=0;labelBackgroundColor=none;strokeWidth=1;fontFamily=Verdana;fontSize=12;align=center;" vertex="1" parent="1">
          <mxGeometry x="670.9274972191324" y="5060" width="131.78509454949946" height="87.85640858310909" as="geometry" />
        </mxCell>
        <mxCell id="aZb8TKHirXO-cwNSeTYz-97" style="edgeStyle=orthogonalEdgeStyle;rounded=0;orthogonalLoop=1;jettySize=auto;html=1;exitX=0.5;exitY=1;exitDx=0;exitDy=0;" edge="1" parent="1" source="aZb8TKHirXO-cwNSeTYz-98" target="aZb8TKHirXO-cwNSeTYz-128">
          <mxGeometry relative="1" as="geometry" />
        </mxCell>
        <mxCell id="aZb8TKHirXO-cwNSeTYz-98" value="literal.t" style="ellipse;whiteSpace=wrap;html=1;rounded=0;shadow=1;comic=0;labelBackgroundColor=none;strokeWidth=1;fontFamily=Verdana;fontSize=12;align=center;" vertex="1" parent="1">
          <mxGeometry x="442.5" y="5868.278958964604" width="131.78509454949946" height="87.85640858310909" as="geometry" />
        </mxCell>
        <mxCell id="aZb8TKHirXO-cwNSeTYz-99" style="edgeStyle=orthogonalEdgeStyle;rounded=0;orthogonalLoop=1;jettySize=auto;html=1;exitX=0.5;exitY=1;exitDx=0;exitDy=0;" edge="1" parent="1" source="aZb8TKHirXO-cwNSeTYz-100" target="aZb8TKHirXO-cwNSeTYz-146">
          <mxGeometry relative="1" as="geometry" />
        </mxCell>
        <mxCell id="aZb8TKHirXO-cwNSeTYz-100" value="bool_literal.t" style="ellipse;whiteSpace=wrap;html=1;rounded=0;shadow=1;comic=0;labelBackgroundColor=none;strokeWidth=1;fontFamily=Verdana;fontSize=12;align=center;" vertex="1" parent="1">
          <mxGeometry x="447.7714037819801" y="6289.989720163527" width="131.78509454949946" height="87.85640858310909" as="geometry" />
        </mxCell>
        <mxCell id="aZb8TKHirXO-cwNSeTYz-101" value="KW_DO" style="ellipse;whiteSpace=wrap;html=1;rounded=0;shadow=1;comic=0;labelBackgroundColor=none;strokeWidth=1;fontFamily=Verdana;fontSize=12;align=center;" vertex="1" parent="1">
          <mxGeometry x="442.5" y="5218.141535449597" width="131.78509454949946" height="87.85640858310909" as="geometry" />
        </mxCell>
        <mxCell id="aZb8TKHirXO-cwNSeTYz-102" value="do_while_opt_stmt_list" style="ellipse;whiteSpace=wrap;html=1;rounded=0;shadow=1;comic=0;labelBackgroundColor=none;strokeWidth=1;fontFamily=Verdana;fontSize=12;align=center;" vertex="1" parent="1">
          <mxGeometry x="670.9274972191324" y="5218.141535449597" width="131.78509454949946" height="87.85640858310909" as="geometry" />
        </mxCell>
        <mxCell id="aZb8TKHirXO-cwNSeTYz-103" value="KW_OD" style="ellipse;whiteSpace=wrap;html=1;rounded=0;shadow=1;comic=0;labelBackgroundColor=none;strokeWidth=1;fontFamily=Verdana;fontSize=12;align=center;" vertex="1" parent="1">
          <mxGeometry x="908.1406674082316" y="5218.141535449597" width="131.78509454949946" height="87.85640858310909" as="geometry" />
        </mxCell>
        <mxCell id="aZb8TKHirXO-cwNSeTYz-104" value="Îµ" style="ellipse;whiteSpace=wrap;html=1;rounded=0;shadow=1;comic=0;labelBackgroundColor=none;strokeWidth=1;fontFamily=Verdana;fontSize=12;align=center;" vertex="1" parent="1">
          <mxGeometry x="442.5" y="5648.637937506832" width="131.78509454949946" height="87.85640858310909" as="geometry" />
        </mxCell>
        <mxCell id="aZb8TKHirXO-cwNSeTYz-105" style="edgeStyle=orthogonalEdgeStyle;rounded=0;orthogonalLoop=1;jettySize=auto;html=1;exitX=0.5;exitY=1;exitDx=0;exitDy=0;" edge="1" parent="1" source="aZb8TKHirXO-cwNSeTYz-106" target="aZb8TKHirXO-cwNSeTYz-107">
          <mxGeometry relative="1" as="geometry" />
        </mxCell>
        <mxCell id="aZb8TKHirXO-cwNSeTYz-106" value="do_while_opt_stmt_list" style="ellipse;whiteSpace=wrap;html=1;rounded=0;shadow=1;comic=0;labelBackgroundColor=none;strokeWidth=1;fontFamily=Verdana;fontSize=12;align=center;" vertex="1" parent="1">
          <mxGeometry x="723.641535038932" y="5481.710761198923" width="131.78509454949946" height="87.85640858310909" as="geometry" />
        </mxCell>
        <mxCell id="aZb8TKHirXO-cwNSeTYz-107" value="if_stmt" style="ellipse;whiteSpace=wrap;html=1;rounded=0;shadow=1;comic=0;labelBackgroundColor=none;strokeWidth=1;fontFamily=Verdana;fontSize=12;align=center;" vertex="1" parent="1">
          <mxGeometry x="723.641535038932" y="5648.637937506832" width="131.78509454949946" height="87.85640858310909" as="geometry" />
        </mxCell>
        <mxCell id="aZb8TKHirXO-cwNSeTYz-108" style="edgeStyle=orthogonalEdgeStyle;rounded=0;orthogonalLoop=1;jettySize=auto;html=1;exitX=0.5;exitY=1;exitDx=0;exitDy=0;" edge="1" parent="1" source="aZb8TKHirXO-cwNSeTYz-109" target="aZb8TKHirXO-cwNSeTYz-110">
          <mxGeometry relative="1" as="geometry" />
        </mxCell>
        <mxCell id="aZb8TKHirXO-cwNSeTYz-109" value="do_while_opt_stmt_list" style="ellipse;whiteSpace=wrap;html=1;rounded=0;shadow=1;comic=0;labelBackgroundColor=none;strokeWidth=1;fontFamily=Verdana;fontSize=12;align=center;" vertex="1" parent="1">
          <mxGeometry x="1013.5687430478313" y="5481.710761198923" width="131.78509454949946" height="87.85640858310909" as="geometry" />
        </mxCell>
        <mxCell id="aZb8TKHirXO-cwNSeTYz-110" value="assign_stmt" style="ellipse;whiteSpace=wrap;html=1;rounded=0;shadow=1;comic=0;labelBackgroundColor=none;strokeWidth=1;fontFamily=Verdana;fontSize=12;align=center;" vertex="1" parent="1">
          <mxGeometry x="1013.5687430478313" y="5648.637937506832" width="131.78509454949946" height="87.85640858310909" as="geometry" />
        </mxCell>
        <mxCell id="aZb8TKHirXO-cwNSeTYz-111" style="edgeStyle=orthogonalEdgeStyle;rounded=0;orthogonalLoop=1;jettySize=auto;html=1;exitX=0.5;exitY=1;exitDx=0;exitDy=0;" edge="1" parent="1" source="aZb8TKHirXO-cwNSeTYz-112" target="aZb8TKHirXO-cwNSeTYz-113">
          <mxGeometry relative="1" as="geometry" />
        </mxCell>
        <mxCell id="aZb8TKHirXO-cwNSeTYz-112" value="do_while_opt_stmt_list" style="ellipse;whiteSpace=wrap;html=1;rounded=0;shadow=1;comic=0;labelBackgroundColor=none;strokeWidth=1;fontFamily=Verdana;fontSize=12;align=center;" vertex="1" parent="1">
          <mxGeometry x="1277.13893214683" y="5481.710761198923" width="131.78509454949946" height="87.85640858310909" as="geometry" />
        </mxCell>
        <mxCell id="aZb8TKHirXO-cwNSeTYz-113" value="return_stmt" style="ellipse;whiteSpace=wrap;html=1;rounded=0;shadow=1;comic=0;labelBackgroundColor=none;strokeWidth=1;fontFamily=Verdana;fontSize=12;align=center;" vertex="1" parent="1">
          <mxGeometry x="1277.13893214683" y="5648.637937506832" width="131.78509454949946" height="87.85640858310909" as="geometry" />
        </mxCell>
        <mxCell id="aZb8TKHirXO-cwNSeTYz-114" style="edgeStyle=orthogonalEdgeStyle;rounded=0;orthogonalLoop=1;jettySize=auto;html=1;exitX=0.5;exitY=1;exitDx=0;exitDy=0;" edge="1" parent="1" source="aZb8TKHirXO-cwNSeTYz-115" target="aZb8TKHirXO-cwNSeTYz-116">
          <mxGeometry relative="1" as="geometry" />
        </mxCell>
        <mxCell id="aZb8TKHirXO-cwNSeTYz-115" value="do_while_opt_stmt_list" style="ellipse;whiteSpace=wrap;html=1;rounded=0;shadow=1;comic=0;labelBackgroundColor=none;strokeWidth=1;fontFamily=Verdana;fontSize=12;align=center;" vertex="1" parent="1">
          <mxGeometry x="1558.280467185762" y="5481.710761198923" width="131.78509454949946" height="87.85640858310909" as="geometry" />
        </mxCell>
        <mxCell id="aZb8TKHirXO-cwNSeTYz-116" value="call_stmt" style="ellipse;whiteSpace=wrap;html=1;rounded=0;shadow=1;comic=0;labelBackgroundColor=none;strokeWidth=1;fontFamily=Verdana;fontSize=12;align=center;" vertex="1" parent="1">
          <mxGeometry x="1558.280467185762" y="5648.637937506832" width="131.78509454949946" height="87.85640858310909" as="geometry" />
        </mxCell>
        <mxCell id="aZb8TKHirXO-cwNSeTYz-117" style="edgeStyle=orthogonalEdgeStyle;rounded=0;orthogonalLoop=1;jettySize=auto;html=1;exitX=0.5;exitY=1;exitDx=0;exitDy=0;" edge="1" parent="1" source="aZb8TKHirXO-cwNSeTYz-118" target="aZb8TKHirXO-cwNSeTYz-119">
          <mxGeometry relative="1" as="geometry" />
        </mxCell>
        <mxCell id="aZb8TKHirXO-cwNSeTYz-118" value="do_while_opt_stmt_list" style="ellipse;whiteSpace=wrap;html=1;rounded=0;shadow=1;comic=0;labelBackgroundColor=none;strokeWidth=1;fontFamily=Verdana;fontSize=12;align=center;" vertex="1" parent="1">
          <mxGeometry x="1848.207675194661" y="5481.710761198923" width="131.78509454949946" height="87.85640858310909" as="geometry" />
        </mxCell>
        <mxCell id="aZb8TKHirXO-cwNSeTYz-119" value="do_while_stmt" style="ellipse;whiteSpace=wrap;html=1;rounded=0;shadow=1;comic=0;labelBackgroundColor=none;strokeWidth=1;fontFamily=Verdana;fontSize=12;align=center;" vertex="1" parent="1">
          <mxGeometry x="1848.207675194661" y="5648.637937506832" width="131.78509454949946" height="87.85640858310909" as="geometry" />
        </mxCell>
        <mxCell id="aZb8TKHirXO-cwNSeTYz-120" style="edgeStyle=orthogonalEdgeStyle;rounded=0;orthogonalLoop=1;jettySize=auto;html=1;exitX=0.5;exitY=1;exitDx=0;exitDy=0;" edge="1" parent="1" source="aZb8TKHirXO-cwNSeTYz-123" target="aZb8TKHirXO-cwNSeTYz-124">
          <mxGeometry relative="1" as="geometry" />
        </mxCell>
        <mxCell id="aZb8TKHirXO-cwNSeTYz-121" style="edgeStyle=orthogonalEdgeStyle;rounded=0;orthogonalLoop=1;jettySize=auto;html=1;exitX=0.5;exitY=1;exitDx=0;exitDy=0;" edge="1" parent="1" source="aZb8TKHirXO-cwNSeTYz-123" target="aZb8TKHirXO-cwNSeTYz-125">
          <mxGeometry relative="1" as="geometry" />
        </mxCell>
        <mxCell id="aZb8TKHirXO-cwNSeTYz-122" style="edgeStyle=orthogonalEdgeStyle;rounded=0;orthogonalLoop=1;jettySize=auto;html=1;exitX=0.5;exitY=1;exitDx=0;exitDy=0;" edge="1" parent="1" source="aZb8TKHirXO-cwNSeTYz-123" target="aZb8TKHirXO-cwNSeTYz-126">
          <mxGeometry relative="1" as="geometry" />
        </mxCell>
        <mxCell id="aZb8TKHirXO-cwNSeTYz-123" value="do_while_opt_stmt_list" style="ellipse;whiteSpace=wrap;html=1;rounded=0;shadow=1;comic=0;labelBackgroundColor=none;strokeWidth=1;fontFamily=Verdana;fontSize=12;align=center;" vertex="1" parent="1">
          <mxGeometry x="2287.4913236929924" y="5481.710761198923" width="131.78509454949946" height="87.85640858310909" as="geometry" />
        </mxCell>
        <mxCell id="aZb8TKHirXO-cwNSeTYz-124" value="exp" style="ellipse;whiteSpace=wrap;html=1;rounded=0;shadow=1;comic=0;labelBackgroundColor=none;strokeWidth=1;fontFamily=Verdana;fontSize=12;align=center;" vertex="1" parent="1">
          <mxGeometry x="2489.561802002225" y="5648.637937506832" width="131.78509454949946" height="87.85640858310909" as="geometry" />
        </mxCell>
        <mxCell id="aZb8TKHirXO-cwNSeTYz-125" value="KW_WHEN" style="ellipse;whiteSpace=wrap;html=1;rounded=0;shadow=1;comic=0;labelBackgroundColor=none;strokeWidth=1;fontFamily=Verdana;fontSize=12;align=center;" vertex="1" parent="1">
          <mxGeometry x="2287.4913236929924" y="5648.637937506832" width="131.78509454949946" height="87.85640858310909" as="geometry" />
        </mxCell>
        <mxCell id="aZb8TKHirXO-cwNSeTYz-126" value="KW_EXIT" style="ellipse;whiteSpace=wrap;html=1;rounded=0;shadow=1;comic=0;labelBackgroundColor=none;strokeWidth=1;fontFamily=Verdana;fontSize=12;align=center;" vertex="1" parent="1">
          <mxGeometry x="2094.206518353726" y="5648.637937506832" width="131.78509454949946" height="87.85640858310909" as="geometry" />
        </mxCell>
        <mxCell id="aZb8TKHirXO-cwNSeTYz-127" style="edgeStyle=orthogonalEdgeStyle;curved=1;rounded=0;orthogonalLoop=1;jettySize=auto;html=1;exitX=1;exitY=0.5;exitDx=0;exitDy=0;entryX=1;entryY=0.5;entryDx=0;entryDy=0;" edge="1" parent="1" source="aZb8TKHirXO-cwNSeTYz-128" target="aZb8TKHirXO-cwNSeTYz-98">
          <mxGeometry relative="1" as="geometry" />
        </mxCell>
        <mxCell id="aZb8TKHirXO-cwNSeTYz-128" value="FLOAT_LITERAL.t" style="ellipse;whiteSpace=wrap;html=1;rounded=0;shadow=1;comic=0;labelBackgroundColor=none;strokeWidth=1;fontFamily=Verdana;fontSize=12;align=center;" vertex="1" parent="1">
          <mxGeometry x="442.5" y="6026.4204944142" width="131.78509454949946" height="87.85640858310909" as="geometry" />
        </mxCell>
        <mxCell id="aZb8TKHirXO-cwNSeTYz-129" style="edgeStyle=orthogonalEdgeStyle;rounded=0;orthogonalLoop=1;jettySize=auto;html=1;exitX=0.5;exitY=1;exitDx=0;exitDy=0;" edge="1" parent="1" source="aZb8TKHirXO-cwNSeTYz-130" target="aZb8TKHirXO-cwNSeTYz-132">
          <mxGeometry relative="1" as="geometry" />
        </mxCell>
        <mxCell id="aZb8TKHirXO-cwNSeTYz-130" value="literal.t" style="ellipse;whiteSpace=wrap;html=1;rounded=0;shadow=1;comic=0;labelBackgroundColor=none;strokeWidth=1;fontFamily=Verdana;fontSize=12;align=center;" vertex="1" parent="1">
          <mxGeometry x="662.1418242491659" y="5868.278958964604" width="131.78509454949946" height="87.85640858310909" as="geometry" />
        </mxCell>
        <mxCell id="aZb8TKHirXO-cwNSeTYz-131" style="edgeStyle=orthogonalEdgeStyle;curved=1;rounded=0;orthogonalLoop=1;jettySize=auto;html=1;exitX=1;exitY=0.5;exitDx=0;exitDy=0;entryX=1;entryY=0.5;entryDx=0;entryDy=0;" edge="1" parent="1" source="aZb8TKHirXO-cwNSeTYz-132" target="aZb8TKHirXO-cwNSeTYz-130">
          <mxGeometry relative="1" as="geometry" />
        </mxCell>
        <mxCell id="aZb8TKHirXO-cwNSeTYz-132" value="INT_LITERALt" style="ellipse;whiteSpace=wrap;html=1;rounded=0;shadow=1;comic=0;labelBackgroundColor=none;strokeWidth=1;fontFamily=Verdana;fontSize=12;align=center;" vertex="1" parent="1">
          <mxGeometry x="662.1418242491659" y="6026.4204944142" width="131.78509454949946" height="87.85640858310909" as="geometry" />
        </mxCell>
        <mxCell id="aZb8TKHirXO-cwNSeTYz-133" style="edgeStyle=orthogonalEdgeStyle;rounded=0;orthogonalLoop=1;jettySize=auto;html=1;exitX=0.5;exitY=1;exitDx=0;exitDy=0;" edge="1" parent="1" source="aZb8TKHirXO-cwNSeTYz-134" target="aZb8TKHirXO-cwNSeTYz-136">
          <mxGeometry relative="1" as="geometry" />
        </mxCell>
        <mxCell id="aZb8TKHirXO-cwNSeTYz-134" value="literal.t" style="ellipse;whiteSpace=wrap;html=1;rounded=0;shadow=1;comic=0;labelBackgroundColor=none;strokeWidth=1;fontFamily=Verdana;fontSize=12;align=center;" vertex="1" parent="1">
          <mxGeometry x="908.1406674082316" y="5868.278958964604" width="131.78509454949946" height="87.85640858310909" as="geometry" />
        </mxCell>
        <mxCell id="aZb8TKHirXO-cwNSeTYz-135" style="edgeStyle=orthogonalEdgeStyle;curved=1;rounded=0;orthogonalLoop=1;jettySize=auto;html=1;exitX=1;exitY=0.5;exitDx=0;exitDy=0;entryX=1;entryY=0.5;entryDx=0;entryDy=0;" edge="1" parent="1" source="aZb8TKHirXO-cwNSeTYz-136" target="aZb8TKHirXO-cwNSeTYz-134">
          <mxGeometry relative="1" as="geometry" />
        </mxCell>
        <mxCell id="aZb8TKHirXO-cwNSeTYz-136" value="STRING_LITERALt" style="ellipse;whiteSpace=wrap;html=1;rounded=0;shadow=1;comic=0;labelBackgroundColor=none;strokeWidth=1;fontFamily=Verdana;fontSize=12;align=center;" vertex="1" parent="1">
          <mxGeometry x="908.1406674082316" y="6026.4204944142" width="131.78509454949946" height="87.85640858310909" as="geometry" />
        </mxCell>
        <mxCell id="aZb8TKHirXO-cwNSeTYz-137" style="edgeStyle=orthogonalEdgeStyle;rounded=0;orthogonalLoop=1;jettySize=auto;html=1;exitX=0.5;exitY=1;exitDx=0;exitDy=0;" edge="1" parent="1" source="aZb8TKHirXO-cwNSeTYz-138" target="aZb8TKHirXO-cwNSeTYz-140">
          <mxGeometry relative="1" as="geometry" />
        </mxCell>
        <mxCell id="aZb8TKHirXO-cwNSeTYz-138" value="literal.t" style="ellipse;whiteSpace=wrap;html=1;rounded=0;shadow=1;comic=0;labelBackgroundColor=none;strokeWidth=1;fontFamily=Verdana;fontSize=12;align=center;" vertex="1" parent="1">
          <mxGeometry x="1171.7108565072303" y="5868.278958964604" width="131.78509454949946" height="87.85640858310909" as="geometry" />
        </mxCell>
        <mxCell id="aZb8TKHirXO-cwNSeTYz-139" style="edgeStyle=orthogonalEdgeStyle;curved=1;rounded=0;orthogonalLoop=1;jettySize=auto;html=1;exitX=1;exitY=0.5;exitDx=0;exitDy=0;entryX=1;entryY=0.5;entryDx=0;entryDy=0;" edge="1" parent="1" source="aZb8TKHirXO-cwNSeTYz-140" target="aZb8TKHirXO-cwNSeTYz-138">
          <mxGeometry relative="1" as="geometry" />
        </mxCell>
        <mxCell id="aZb8TKHirXO-cwNSeTYz-140" value="bool_literal.t" style="ellipse;whiteSpace=wrap;html=1;rounded=0;shadow=1;comic=0;labelBackgroundColor=none;strokeWidth=1;fontFamily=Verdana;fontSize=12;align=center;" vertex="1" parent="1">
          <mxGeometry x="1171.7108565072303" y="6026.4204944142" width="131.78509454949946" height="87.85640858310909" as="geometry" />
        </mxCell>
        <mxCell id="aZb8TKHirXO-cwNSeTYz-141" style="edgeStyle=orthogonalEdgeStyle;rounded=0;orthogonalLoop=1;jettySize=auto;html=1;exitX=0.5;exitY=1;exitDx=0;exitDy=0;" edge="1" parent="1" source="aZb8TKHirXO-cwNSeTYz-142" target="aZb8TKHirXO-cwNSeTYz-144">
          <mxGeometry relative="1" as="geometry" />
        </mxCell>
        <mxCell id="aZb8TKHirXO-cwNSeTYz-142" value="literal.t" style="ellipse;whiteSpace=wrap;html=1;rounded=0;shadow=1;comic=0;labelBackgroundColor=none;strokeWidth=1;fontFamily=Verdana;fontSize=12;align=center;" vertex="1" parent="1">
          <mxGeometry x="1408.9240266963288" y="5868.278958964604" width="131.78509454949946" height="87.85640858310909" as="geometry" />
        </mxCell>
        <mxCell id="aZb8TKHirXO-cwNSeTYz-143" style="edgeStyle=orthogonalEdgeStyle;curved=1;rounded=0;orthogonalLoop=1;jettySize=auto;html=1;exitX=1;exitY=0.5;exitDx=0;exitDy=0;entryX=1;entryY=0.5;entryDx=0;entryDy=0;" edge="1" parent="1" source="aZb8TKHirXO-cwNSeTYz-144" target="aZb8TKHirXO-cwNSeTYz-142">
          <mxGeometry relative="1" as="geometry" />
        </mxCell>
        <mxCell id="aZb8TKHirXO-cwNSeTYz-144" value="KW_NULL.t" style="ellipse;whiteSpace=wrap;html=1;rounded=0;shadow=1;comic=0;labelBackgroundColor=none;strokeWidth=1;fontFamily=Verdana;fontSize=12;align=center;" vertex="1" parent="1">
          <mxGeometry x="1408.9240266963288" y="6026.4204944142" width="131.78509454949946" height="87.85640858310909" as="geometry" />
        </mxCell>
        <mxCell id="aZb8TKHirXO-cwNSeTYz-145" style="edgeStyle=orthogonalEdgeStyle;curved=1;rounded=0;orthogonalLoop=1;jettySize=auto;html=1;exitX=1;exitY=0.5;exitDx=0;exitDy=0;entryX=1;entryY=0.5;entryDx=0;entryDy=0;" edge="1" parent="1" source="aZb8TKHirXO-cwNSeTYz-146" target="aZb8TKHirXO-cwNSeTYz-100">
          <mxGeometry relative="1" as="geometry" />
        </mxCell>
        <mxCell id="aZb8TKHirXO-cwNSeTYz-146" value="KW_TRUE.t" style="ellipse;whiteSpace=wrap;html=1;rounded=0;shadow=1;comic=0;labelBackgroundColor=none;strokeWidth=1;fontFamily=Verdana;fontSize=12;align=center;" vertex="1" parent="1">
          <mxGeometry x="447.7714037819801" y="6483.273819046368" width="131.78509454949946" height="87.85640858310909" as="geometry" />
        </mxCell>
        <mxCell id="aZb8TKHirXO-cwNSeTYz-147" style="edgeStyle=orthogonalEdgeStyle;curved=1;rounded=0;orthogonalLoop=1;jettySize=auto;html=1;exitX=1;exitY=0.5;exitDx=0;exitDy=0;entryX=1;entryY=0.5;entryDx=0;entryDy=0;" edge="1" parent="1" source="aZb8TKHirXO-cwNSeTYz-148" target="aZb8TKHirXO-cwNSeTYz-150">
          <mxGeometry relative="1" as="geometry" />
        </mxCell>
        <mxCell id="aZb8TKHirXO-cwNSeTYz-148" value="KW_FALSE.t" style="ellipse;whiteSpace=wrap;html=1;rounded=0;shadow=1;comic=0;labelBackgroundColor=none;strokeWidth=1;fontFamily=Verdana;fontSize=12;align=center;" vertex="1" parent="1">
          <mxGeometry x="737.6986117908789" y="6483.273819046368" width="131.78509454949946" height="87.85640858310909" as="geometry" />
        </mxCell>
        <mxCell id="aZb8TKHirXO-cwNSeTYz-149" style="edgeStyle=orthogonalEdgeStyle;rounded=0;orthogonalLoop=1;jettySize=auto;html=1;exitX=0.5;exitY=1;exitDx=0;exitDy=0;" edge="1" parent="1" source="aZb8TKHirXO-cwNSeTYz-150" target="aZb8TKHirXO-cwNSeTYz-148">
          <mxGeometry relative="1" as="geometry" />
        </mxCell>
        <mxCell id="aZb8TKHirXO-cwNSeTYz-150" value="bool_literal.t" style="ellipse;whiteSpace=wrap;html=1;rounded=0;shadow=1;comic=0;labelBackgroundColor=none;strokeWidth=1;fontFamily=Verdana;fontSize=12;align=center;" vertex="1" parent="1">
          <mxGeometry x="737.6986117908789" y="6289.989720163527" width="131.78509454949946" height="87.85640858310909" as="geometry" />
        </mxCell>
        <mxCell id="aZb8TKHirXO-cwNSeTYz-151" style="edgeStyle=orthogonalEdgeStyle;rounded=0;orthogonalLoop=1;jettySize=auto;html=1;exitX=0.5;exitY=1;exitDx=0;exitDy=0;" edge="1" parent="1" source="aZb8TKHirXO-cwNSeTYz-152" target="aZb8TKHirXO-cwNSeTYz-154">
          <mxGeometry relative="1" as="geometry" />
        </mxCell>
        <mxCell id="aZb8TKHirXO-cwNSeTYz-152" value="type.t" style="ellipse;whiteSpace=wrap;html=1;rounded=0;shadow=1;comic=0;labelBackgroundColor=none;strokeWidth=1;fontFamily=Verdana;fontSize=12;align=center;" vertex="1" parent="1">
          <mxGeometry x="447.7714037819801" y="6694.129199645828" width="131.78509454949946" height="87.85640858310909" as="geometry" />
        </mxCell>
        <mxCell id="aZb8TKHirXO-cwNSeTYz-153" style="edgeStyle=orthogonalEdgeStyle;curved=1;rounded=0;orthogonalLoop=1;jettySize=auto;html=1;exitX=1;exitY=0.5;exitDx=0;exitDy=0;entryX=1;entryY=0.5;entryDx=0;entryDy=0;" edge="1" parent="1" source="aZb8TKHirXO-cwNSeTYz-154" target="aZb8TKHirXO-cwNSeTYz-152">
          <mxGeometry relative="1" as="geometry" />
        </mxCell>
        <mxCell id="aZb8TKHirXO-cwNSeTYz-154" value="KW_FLOAT.t" style="ellipse;whiteSpace=wrap;html=1;rounded=0;shadow=1;comic=0;labelBackgroundColor=none;strokeWidth=1;fontFamily=Verdana;fontSize=12;align=center;" vertex="1" parent="1">
          <mxGeometry x="447.7714037819801" y="6852.270735095424" width="131.78509454949946" height="87.85640858310909" as="geometry" />
        </mxCell>
        <mxCell id="aZb8TKHirXO-cwNSeTYz-155" style="edgeStyle=orthogonalEdgeStyle;rounded=0;orthogonalLoop=1;jettySize=auto;html=1;exitX=0.5;exitY=1;exitDx=0;exitDy=0;" edge="1" parent="1" source="aZb8TKHirXO-cwNSeTYz-156" target="aZb8TKHirXO-cwNSeTYz-158">
          <mxGeometry relative="1" as="geometry" />
        </mxCell>
        <mxCell id="aZb8TKHirXO-cwNSeTYz-156" value="type.t" style="ellipse;whiteSpace=wrap;html=1;rounded=0;shadow=1;comic=0;labelBackgroundColor=none;strokeWidth=1;fontFamily=Verdana;fontSize=12;align=center;" vertex="1" parent="1">
          <mxGeometry x="667.4132280311458" y="6694.129199645828" width="131.78509454949946" height="87.85640858310909" as="geometry" />
        </mxCell>
        <mxCell id="aZb8TKHirXO-cwNSeTYz-157" style="edgeStyle=orthogonalEdgeStyle;curved=1;rounded=0;orthogonalLoop=1;jettySize=auto;html=1;exitX=1;exitY=0.5;exitDx=0;exitDy=0;entryX=1;entryY=0.5;entryDx=0;entryDy=0;" edge="1" parent="1" source="aZb8TKHirXO-cwNSeTYz-158" target="aZb8TKHirXO-cwNSeTYz-156">
          <mxGeometry relative="1" as="geometry" />
        </mxCell>
        <mxCell id="aZb8TKHirXO-cwNSeTYz-158" value="KW_INT.t" style="ellipse;whiteSpace=wrap;html=1;rounded=0;shadow=1;comic=0;labelBackgroundColor=none;strokeWidth=1;fontFamily=Verdana;fontSize=12;align=center;" vertex="1" parent="1">
          <mxGeometry x="667.4132280311458" y="6852.270735095424" width="131.78509454949946" height="87.85640858310909" as="geometry" />
        </mxCell>
        <mxCell id="aZb8TKHirXO-cwNSeTYz-159" style="edgeStyle=orthogonalEdgeStyle;rounded=0;orthogonalLoop=1;jettySize=auto;html=1;exitX=0.5;exitY=1;exitDx=0;exitDy=0;" edge="1" parent="1" source="aZb8TKHirXO-cwNSeTYz-160" target="aZb8TKHirXO-cwNSeTYz-162">
          <mxGeometry relative="1" as="geometry" />
        </mxCell>
        <mxCell id="aZb8TKHirXO-cwNSeTYz-160" value="type.t" style="ellipse;whiteSpace=wrap;html=1;rounded=0;shadow=1;comic=0;labelBackgroundColor=none;strokeWidth=1;fontFamily=Verdana;fontSize=12;align=center;" vertex="1" parent="1">
          <mxGeometry x="913.4120711902112" y="6694.129199645828" width="131.78509454949946" height="87.85640858310909" as="geometry" />
        </mxCell>
        <mxCell id="aZb8TKHirXO-cwNSeTYz-161" style="edgeStyle=orthogonalEdgeStyle;curved=1;rounded=0;orthogonalLoop=1;jettySize=auto;html=1;exitX=1;exitY=0.5;exitDx=0;exitDy=0;entryX=1;entryY=0.5;entryDx=0;entryDy=0;" edge="1" parent="1" source="aZb8TKHirXO-cwNSeTYz-162" target="aZb8TKHirXO-cwNSeTYz-160">
          <mxGeometry relative="1" as="geometry" />
        </mxCell>
        <mxCell id="aZb8TKHirXO-cwNSeTYz-162" value="KW_STRING.t" style="ellipse;whiteSpace=wrap;html=1;rounded=0;shadow=1;comic=0;labelBackgroundColor=none;strokeWidth=1;fontFamily=Verdana;fontSize=12;align=center;" vertex="1" parent="1">
          <mxGeometry x="913.4120711902112" y="6852.270735095424" width="131.78509454949946" height="87.85640858310909" as="geometry" />
        </mxCell>
        <mxCell id="aZb8TKHirXO-cwNSeTYz-163" style="edgeStyle=orthogonalEdgeStyle;rounded=0;orthogonalLoop=1;jettySize=auto;html=1;exitX=0.5;exitY=1;exitDx=0;exitDy=0;" edge="1" parent="1" source="aZb8TKHirXO-cwNSeTYz-164" target="aZb8TKHirXO-cwNSeTYz-166">
          <mxGeometry relative="1" as="geometry" />
        </mxCell>
        <mxCell id="aZb8TKHirXO-cwNSeTYz-164" value="type.t" style="ellipse;whiteSpace=wrap;html=1;rounded=0;shadow=1;comic=0;labelBackgroundColor=none;strokeWidth=1;fontFamily=Verdana;fontSize=12;align=center;" vertex="1" parent="1">
          <mxGeometry x="1176.9822602892104" y="6694.129199645828" width="131.78509454949946" height="87.85640858310909" as="geometry" />
        </mxCell>
        <mxCell id="aZb8TKHirXO-cwNSeTYz-165" style="edgeStyle=orthogonalEdgeStyle;curved=1;rounded=0;orthogonalLoop=1;jettySize=auto;html=1;exitX=1;exitY=0.5;exitDx=0;exitDy=0;entryX=1;entryY=0.5;entryDx=0;entryDy=0;" edge="1" parent="1" source="aZb8TKHirXO-cwNSeTYz-166" target="aZb8TKHirXO-cwNSeTYz-164">
          <mxGeometry relative="1" as="geometry" />
        </mxCell>
        <mxCell id="aZb8TKHirXO-cwNSeTYz-166" value="KW_BOOL.t" style="ellipse;whiteSpace=wrap;html=1;rounded=0;shadow=1;comic=0;labelBackgroundColor=none;strokeWidth=1;fontFamily=Verdana;fontSize=12;align=center;" vertex="1" parent="1">
          <mxGeometry x="1176.9822602892104" y="6852.270735095424" width="131.78509454949946" height="87.85640858310909" as="geometry" />
        </mxCell>
        <mxCell id="aZb8TKHirXO-cwNSeTYz-167" style="edgeStyle=orthogonalEdgeStyle;rounded=0;orthogonalLoop=1;jettySize=auto;html=1;exitX=0.5;exitY=1;exitDx=0;exitDy=0;" edge="1" parent="1" source="aZb8TKHirXO-cwNSeTYz-168" target="aZb8TKHirXO-cwNSeTYz-170">
          <mxGeometry relative="1" as="geometry" />
        </mxCell>
        <mxCell id="aZb8TKHirXO-cwNSeTYz-168" value="type.t" style="ellipse;whiteSpace=wrap;html=1;rounded=0;shadow=1;comic=0;labelBackgroundColor=none;strokeWidth=1;fontFamily=Verdana;fontSize=12;align=center;" vertex="1" parent="1">
          <mxGeometry x="1414.1954304783094" y="6694.129199645828" width="131.78509454949946" height="87.85640858310909" as="geometry" />
        </mxCell>
        <mxCell id="aZb8TKHirXO-cwNSeTYz-169" style="edgeStyle=orthogonalEdgeStyle;curved=1;rounded=0;orthogonalLoop=1;jettySize=auto;html=1;exitX=1;exitY=0;exitDx=0;exitDy=0;entryX=1;entryY=0.5;entryDx=0;entryDy=0;" edge="1" parent="1" source="aZb8TKHirXO-cwNSeTYz-170" target="aZb8TKHirXO-cwNSeTYz-168">
          <mxGeometry relative="1" as="geometry" />
        </mxCell>
        <mxCell id="aZb8TKHirXO-cwNSeTYz-170" value="ID.l" style="ellipse;whiteSpace=wrap;html=1;rounded=0;shadow=1;comic=0;labelBackgroundColor=none;strokeWidth=1;fontFamily=Verdana;fontSize=12;align=center;" vertex="1" parent="1">
          <mxGeometry x="1414.1954304783094" y="6852.270735095424" width="131.78509454949946" height="87.85640858310909" as="geometry" />
        </mxCell>
        <mxCell id="aZb8TKHirXO-cwNSeTYz-171" style="edgeStyle=orthogonalEdgeStyle;rounded=0;orthogonalLoop=1;jettySize=auto;html=1;exitX=0.5;exitY=1;exitDx=0;exitDy=0;" edge="1" parent="1" source="aZb8TKHirXO-cwNSeTYz-175" target="aZb8TKHirXO-cwNSeTYz-176">
          <mxGeometry relative="1" as="geometry" />
        </mxCell>
        <mxCell id="aZb8TKHirXO-cwNSeTYz-172" style="edgeStyle=orthogonalEdgeStyle;rounded=0;orthogonalLoop=1;jettySize=auto;html=1;exitX=0.5;exitY=1;exitDx=0;exitDy=0;" edge="1" parent="1" source="aZb8TKHirXO-cwNSeTYz-175" target="aZb8TKHirXO-cwNSeTYz-178">
          <mxGeometry relative="1" as="geometry" />
        </mxCell>
        <mxCell id="aZb8TKHirXO-cwNSeTYz-173" style="edgeStyle=orthogonalEdgeStyle;rounded=0;orthogonalLoop=1;jettySize=auto;html=1;exitX=0.5;exitY=1;exitDx=0;exitDy=0;" edge="1" parent="1" source="aZb8TKHirXO-cwNSeTYz-175" target="aZb8TKHirXO-cwNSeTYz-179">
          <mxGeometry relative="1" as="geometry" />
        </mxCell>
        <mxCell id="aZb8TKHirXO-cwNSeTYz-174" style="edgeStyle=orthogonalEdgeStyle;rounded=0;orthogonalLoop=1;jettySize=auto;html=1;exitX=0.5;exitY=1;exitDx=0;exitDy=0;" edge="1" parent="1" source="aZb8TKHirXO-cwNSeTYz-175" target="aZb8TKHirXO-cwNSeTYz-180">
          <mxGeometry relative="1" as="geometry" />
        </mxCell>
        <mxCell id="aZb8TKHirXO-cwNSeTYz-175" value="type.t" style="ellipse;whiteSpace=wrap;html=1;rounded=0;shadow=1;comic=0;labelBackgroundColor=none;strokeWidth=1;fontFamily=Verdana;fontSize=12;align=center;" vertex="1" parent="1">
          <mxGeometry x="1900.9217130144607" y="6694.129199645828" width="131.78509454949946" height="87.85640858310909" as="geometry" />
        </mxCell>
        <mxCell id="aZb8TKHirXO-cwNSeTYz-176" value=")" style="ellipse;whiteSpace=wrap;html=1;rounded=0;shadow=1;comic=0;labelBackgroundColor=none;strokeWidth=1;fontFamily=Verdana;fontSize=12;align=center;" vertex="1" parent="1">
          <mxGeometry x="2136.377748609566" y="6852.270735095424" width="131.78509454949946" height="87.85640858310909" as="geometry" />
        </mxCell>
        <mxCell id="aZb8TKHirXO-cwNSeTYz-177" style="edgeStyle=orthogonalEdgeStyle;curved=1;rounded=0;orthogonalLoop=1;jettySize=auto;html=1;exitX=1;exitY=0;exitDx=0;exitDy=0;entryX=1;entryY=0.5;entryDx=0;entryDy=0;" edge="1" parent="1" source="aZb8TKHirXO-cwNSeTYz-178" target="aZb8TKHirXO-cwNSeTYz-175">
          <mxGeometry relative="1" as="geometry" />
        </mxCell>
        <mxCell id="aZb8TKHirXO-cwNSeTYz-178" value="type.t" style="ellipse;whiteSpace=wrap;html=1;rounded=0;shadow=1;comic=0;labelBackgroundColor=none;strokeWidth=1;fontFamily=Verdana;fontSize=12;align=center;" vertex="1" parent="1">
          <mxGeometry x="1978.2356351501667" y="6852.270735095424" width="131.78509454949946" height="87.85640858310909" as="geometry" />
        </mxCell>
        <mxCell id="aZb8TKHirXO-cwNSeTYz-179" value="(" style="ellipse;whiteSpace=wrap;html=1;rounded=0;shadow=1;comic=0;labelBackgroundColor=none;strokeWidth=1;fontFamily=Verdana;fontSize=12;align=center;" vertex="1" parent="1">
          <mxGeometry x="1820.0935216907674" y="6852.270735095424" width="131.78509454949946" height="87.85640858310909" as="geometry" />
        </mxCell>
        <mxCell id="aZb8TKHirXO-cwNSeTYz-180" value="KW_REF" style="ellipse;whiteSpace=wrap;html=1;rounded=0;shadow=1;comic=0;labelBackgroundColor=none;strokeWidth=1;fontFamily=Verdana;fontSize=12;align=center;" vertex="1" parent="1">
          <mxGeometry x="1654.9228698553948" y="6852.270735095424" width="131.78509454949946" height="87.85640858310909" as="geometry" />
        </mxCell>
      </root>
    </mxGraphModel>
  </diagram>
</mxfile>
